<?xml version="1.0" standalone="no"?>
<!DOCTYPE svg PUBLIC "-//W3C//DTD SVG 20010904//EN"
 "http://www.w3.org/TR/2001/REC-SVG-20010904/DTD/svg10.dtd">
<svg version="1.0" xmlns="http://www.w3.org/2000/svg"
 width="326.000000pt" height="131.000000pt" viewBox="0 0 326.000000 131.000000"
 preserveAspectRatio="xMidYMid meet">
<metadata>
Created by potrace 1.16, written by Peter Selinger 2001-2019
</metadata>
<g transform="translate(0.000000,131.000000) scale(0.100000,-0.100000)"
fill="#000000" stroke="none">
<path d="M1335 1300 c4 -6 11 -8 16 -5 14 9 11 15 -7 15 -8 0 -12 -5 -9 -10z"/>
<path d="M1575 1280 c3 -5 8 -10 11 -10 2 0 4 5 4 10 0 6 -5 10 -11 10 -5 0
-7 -4 -4 -10z"/>
<path d="M1840 1280 c0 -5 5 -10 10 -10 6 0 10 5 10 10 0 6 -4 10 -10 10 -5 0
-10 -4 -10 -10z"/>
<path d="M2364 1259 c-2 -4 -15 -4 -28 -2 -14 3 -39 -2 -55 -10 -17 -9 -31
-11 -31 -6 0 6 -5 7 -12 3 -19 -12 -57 -14 -63 -3 -11 16 -45 10 -45 -8 0 -16
-1 -16 -17 -1 -15 16 -17 16 -28 1 -12 -16 -40 -9 -30 8 3 5 -1 6 -9 3 -9 -3
-16 -11 -16 -16 0 -6 -11 -3 -25 6 -15 10 -25 12 -25 6 0 -7 -8 -9 -21 -5 -15
5 -19 4 -15 -4 4 -6 0 -11 -8 -11 -9 0 -16 -4 -16 -8 0 -12 -44 -12 -51 0 -10
16 -29 0 -22 -20 6 -16 5 -15 -14 1 -20 17 -33 17 -95 0 -12 -3 -18 1 -18 11
0 20 -21 20 -46 0 -13 -11 -15 -17 -6 -20 6 -3 9 -10 6 -16 -4 -6 -12 -1 -20
13 -12 22 -13 22 -14 4 0 -17 -2 -17 -10 -5 -6 9 -13 11 -17 5 -5 -5 -21 -11
-37 -13 -25 -3 -28 0 -23 17 3 14 0 21 -8 21 -8 0 -17 9 -20 21 -5 16 -10 18
-21 8 -18 -15 -18 -39 1 -39 8 0 19 -10 26 -22 10 -18 9 -20 -7 -14 -9 4 -20
2 -24 -4 -4 -7 -20 -10 -36 -7 -27 4 -28 5 -6 12 29 10 29 29 0 22 -12 -4 -27
-2 -34 4 -12 10 -44 2 -44 -11 0 -5 9 -12 20 -15 11 -3 20 -13 20 -21 0 -18
-16 -18 -23 0 -6 16 -57 10 -57 -7 0 -8 -3 -8 -11 0 -6 6 -30 8 -56 5 -32 -3
-48 -1 -54 9 -6 9 -12 10 -16 4 -5 -6 -21 -11 -38 -12 -16 -1 -31 -6 -33 -12
-3 -9 -8 -8 -19 0 -17 15 -105 13 -114 -3 -4 -7 -14 -6 -30 3 -23 12 -23 12
-4 19 19 7 19 7 -2 14 -24 8 -47 0 -39 -13 3 -3 -4 -7 -14 -7 -10 0 -16 6 -13
13 3 7 -2 13 -12 13 -9 0 -13 -4 -10 -10 10 -16 -2 -12 -21 7 -13 13 -19 14
-22 5 -2 -7 -8 -10 -13 -6 -13 8 -11 -10 2 -23 9 -9 7 -10 -10 -6 -12 3 -21 1
-21 -6 0 -8 -6 -8 -20 -1 -11 5 -29 15 -40 20 -16 8 -22 7 -27 -5 -3 -10 -12
-14 -21 -10 -8 3 -19 0 -23 -6 -4 -7 -33 -11 -73 -11 -37 0 -64 -4 -60 -9 5
-9 -9 -13 -33 -10 -7 1 -13 -5 -13 -13 0 -10 -6 -13 -17 -9 -11 4 -14 3 -9 -5
10 -16 -52 -72 -79 -72 -9 0 -24 -7 -33 -16 -15 -15 -16 -15 -23 2 -6 16 -9
13 -14 -13 -6 -24 -13 -33 -29 -34 -17 -1 -18 -2 -3 -6 30 -8 13 -28 -26 -31
-21 -2 -35 -7 -32 -13 9 -14 -7 -11 -25 6 -16 14 -17 14 -12 -11 3 -18 0 -30
-12 -36 -19 -11 -22 -54 -3 -61 12 -6 -34 -11 -65 -9 -12 1 -18 -5 -18 -21 0
-14 -3 -18 -8 -10 -5 8 -16 2 -33 -20 -19 -24 -27 -48 -31 -90 -3 -37 -1 -57
6 -57 12 -1 56 -35 56 -44 0 -19 40 -42 74 -43 21 0 42 -6 46 -13 4 -7 12 -10
18 -6 5 3 15 -1 22 -10 7 -8 19 -13 26 -10 16 6 38 -19 29 -34 -3 -5 1 -10 9
-10 9 0 16 5 16 10 0 18 29 10 44 -12 19 -27 16 -31 -17 -19 -19 8 -28 6 -37
-5 -10 -11 -9 -14 8 -14 11 0 25 -7 32 -15 7 -8 20 -15 29 -16 10 0 11 -2 4
-6 -22 -8 -14 -23 11 -23 28 0 42 -16 37 -44 -2 -15 2 -18 23 -14 18 4 26 1
26 -8 0 -9 11 -14 29 -14 17 0 33 -5 36 -11 4 -6 0 -9 -11 -7 -13 2 -18 -2
-16 -14 2 -12 -4 -18 -15 -18 -12 0 -14 -3 -7 -10 14 -14 44 -2 44 19 0 14 2
14 10 1 5 -8 10 -11 10 -6 0 4 11 1 25 -8 14 -9 29 -15 33 -12 4 2 16 -2 26
-9 13 -10 17 -23 14 -45 -3 -17 -1 -33 4 -36 4 -3 8 -1 8 3 0 10 153 4 160 -7
3 -4 30 -11 60 -15 91 -13 110 -13 110 -3 0 5 8 7 18 4 10 -4 27 1 38 9 10 8
32 15 47 15 16 0 26 4 22 9 -3 5 8 3 25 -6 27 -13 33 -13 54 0 35 23 151 27
144 5 -11 -32 29 -40 110 -22 15 3 21 1 17 -6 -3 -5 1 -10 10 -10 9 0 13 -4
10 -10 -3 -5 12 -3 33 4 27 10 43 11 50 4 6 -6 12 -6 17 1 4 8 11 6 22 -5 15
-15 18 -15 28 0 13 17 30 23 20 6 -3 -5 -2 -10 4 -10 5 0 15 8 20 18 6 9 11
12 11 6 0 -18 32 -26 42 -12 4 7 8 8 8 2 0 -6 19 -8 56 -4 38 4 57 3 62 -6 4
-7 28 -15 54 -17 35 -4 50 -2 60 11 11 13 11 15 -4 9 -21 -8 -23 -1 -5 18 8 7
31 13 53 13 21 -1 48 0 59 1 11 0 40 -1 65 -4 40 -5 85 -5 143 -2 9 1 17 5 17
9 0 4 8 8 19 8 10 0 24 6 31 14 6 8 17 13 25 10 7 -3 16 -1 19 5 5 7 15 7 32
1 29 -12 44 -6 44 17 0 11 7 14 25 11 15 -3 29 0 33 8 4 7 19 15 34 18 14 2
39 13 54 23 19 12 25 13 20 4 -7 -11 -6 -12 5 -5 14 9 34 14 57 16 6 1 12 7
12 15 0 17 10 17 30 -2 14 -13 19 -12 41 9 13 12 31 20 38 18 8 -3 20 3 27 13
7 9 17 14 23 10 7 -4 10 3 8 17 -1 15 4 23 18 26 33 7 47 23 34 38 -9 11 -8
14 5 14 13 0 13 3 -4 20 -19 19 -22 19 -36 5 -20 -19 -24 -19 -24 3 0 9 14 25
30 34 30 17 43 45 16 35 -7 -3 -19 0 -26 6 -10 10 -12 7 -7 -10 3 -13 1 -23
-4 -23 -5 0 -9 5 -9 10 0 6 -4 10 -10 10 -5 0 -9 -5 -7 -11 1 -6 -4 -14 -12
-17 -9 -3 -11 0 -7 7 6 8 1 10 -16 6 -20 -5 -27 -1 -36 21 -12 26 -12 26 16
22 28 -4 58 14 48 30 -2 4 7 8 20 8 13 1 24 -2 24 -7 0 -17 18 -9 23 10 3 14
-2 21 -17 26 -21 6 -21 6 -1 15 17 7 17 9 3 9 -10 1 -18 5 -18 10 0 5 -13 23
-30 41 -33 35 -37 44 -17 37 6 -2 29 2 50 9 37 13 40 14 55 14 4 0 0 5 -8 10
-11 7 -5 10 25 11 55 3 88 -1 100 -11 5 -4 21 -9 35 -10 31 -4 99 25 79 33 -8
3 -4 6 9 6 13 1 20 5 17 11 -3 6 -1 10 5 10 7 0 9 -8 5 -21 -6 -18 -4 -20 17
-14 35 11 53 45 23 45 -8 0 -15 5 -15 10 0 6 -9 10 -20 10 -11 0 -20 5 -20 10
0 6 -7 10 -16 10 -8 0 -12 -4 -9 -10 10 -16 -5 -12 -32 10 -14 11 -32 20 -39
20 -16 0 -26 27 -33 92 -1 4 -7 5 -15 2 -8 -3 -19 3 -25 14 -7 14 -17 18 -31
15 -11 -3 -20 0 -20 6 0 6 -15 11 -34 11 -19 0 -38 5 -41 10 -3 6 -18 10 -33
10 -21 0 -24 2 -12 10 12 8 9 10 -12 10 -16 0 -28 4 -28 9 0 15 -30 22 -50 11
-14 -8 -19 -5 -24 13 -5 20 -6 20 -18 5 -11 -15 -20 -15 -63 -6 -27 6 -63 12
-78 13 -16 2 -36 10 -46 19 -10 9 -22 16 -27 15 -21 -4 -24 2 -9 17 8 9 26 17
39 18 13 0 22 4 19 9 -2 4 1 7 7 7 6 0 8 5 5 11 -4 6 -1 9 6 8 17 -3 69 21 69
32 0 4 -4 11 -10 14 -5 3 -10 11 -10 17 0 7 4 7 14 -1 10 -9 16 -8 26 4 7 9
10 19 6 22 -4 4 -10 3 -14 -3 -9 -13 -52 -16 -52 -3 0 5 -16 9 -36 9 -28 0
-35 -3 -30 -15 3 -9 0 -15 -10 -15 -11 0 -14 8 -12 28 l3 27 -73 0 c-41 0 -76
-3 -78 -6z m-1327 -135 c-3 -3 -12 -4 -19 -1 -8 3 -5 6 6 6 11 1 17 -2 13 -5z
m-780 -240 c-3 -3 -12 -4 -19 -1 -8 3 -5 6 6 6 11 1 17 -2 13 -5z m-53 -89
c-4 -8 -10 -12 -15 -9 -14 8 -10 24 6 24 9 0 12 -6 9 -15z m2956 -49 c0 -2 -7
-7 -16 -10 -8 -3 -12 -2 -9 4 6 10 25 14 25 6z m-1770 -660 c0 -3 -4 -8 -10
-11 -5 -3 -10 -1 -10 4 0 6 5 11 10 11 6 0 10 -2 10 -4z"/>
<path d="M1640 1240 c0 -5 7 -10 16 -10 8 0 12 5 9 10 -3 6 -10 10 -16 10 -5
0 -9 -4 -9 -10z"/>
<path d="M1370 1225 c-7 -9 -11 -17 -9 -20 3 -2 10 5 17 15 14 24 10 26 -8 5z"/>
<path d="M1250 1190 c-13 -8 -12 -10 3 -10 9 0 17 5 17 10 0 12 -1 12 -20 0z"/>
<path d="M1355 1170 c3 -5 8 -10 11 -10 2 0 4 5 4 10 0 6 -5 10 -11 10 -5 0
-7 -4 -4 -10z"/>
<path d="M2665 1050 c-3 -6 1 -7 9 -4 18 7 21 14 7 14 -6 0 -13 -4 -16 -10z"/>
<path d="M2695 1040 c-3 -5 -1 -10 4 -10 6 0 11 5 11 10 0 6 -2 10 -4 10 -3 0
-8 -4 -11 -10z"/>
<path d="M230 933 c0 -6 -8 -14 -17 -16 -10 -3 2 -5 27 -5 25 0 36 3 25 5 -11
3 -23 10 -27 17 -6 8 -8 8 -8 -1z"/>
<path d="M3090 530 c0 -5 5 -10 11 -10 5 0 7 5 4 10 -3 6 -8 10 -11 10 -2 0
-4 -4 -4 -10z"/>
<path d="M2973 500 c-6 -22 -29 -27 -36 -7 -4 9 -6 9 -6 0 -1 -7 8 -17 19 -23
11 -6 20 -17 20 -25 0 -8 7 -15 15 -15 8 0 15 -4 15 -10 0 -5 5 -10 11 -10 5
0 7 6 3 13 -6 8 -3 8 9 -1 28 -23 43 -8 17 16 -13 12 -19 22 -12 22 6 0 14 -5
17 -10 4 -6 11 -7 17 -4 6 4 15 0 20 -7 7 -11 11 -11 15 -1 2 6 11 12 19 12 9
0 12 5 9 10 -3 6 3 10 14 10 12 0 21 3 21 8 0 4 -21 5 -47 3 -36 -2 -50 1 -60
14 -7 10 -27 20 -44 22 -24 2 -32 -1 -36 -17z m28 -53 c-10 -9 -11 -8 -5 6 3
10 9 15 12 12 3 -3 0 -11 -7 -18z"/>
<path d="M2355 90 c3 -5 8 -10 11 -10 2 0 4 5 4 10 0 6 -5 10 -11 10 -5 0 -7
-4 -4 -10z"/>
<path d="M1430 40 c0 -5 5 -10 10 -10 6 0 10 5 10 10 0 6 -4 10 -10 10 -5 0
-10 -4 -10 -10z"/>
<path d="M1835 20 c3 -5 16 -10 28 -10 18 0 19 2 7 10 -20 13 -43 13 -35 0z"/>
</g>
</svg>
