<?xml version="1.0" standalone="no"?>
<!DOCTYPE svg PUBLIC "-//W3C//DTD SVG 20010904//EN"
 "http://www.w3.org/TR/2001/REC-SVG-20010904/DTD/svg10.dtd">
<svg version="1.0" xmlns="http://www.w3.org/2000/svg"
 width="731.000000pt" height="580.000000pt" viewBox="0 0 731.000000 580.000000"
 preserveAspectRatio="xMidYMid meet">
<metadata>
Created by potrace 1.16, written by Peter Selinger 2001-2019
</metadata>
<g transform="translate(0.000000,580.000000) scale(0.100000,-0.100000)"
fill="#aa0000" stroke="none">
<path d="M4351 5774 c-27 -35 -27 -69 1 -88 71 -50 147 33 85 92 -31 29 -61
28 -86 -4z"/>
<path d="M4061 5684 c-41 -52 -13 -114 52 -114 38 0 77 34 77 67 0 36 -38 73
-75 73 -24 0 -39 -7 -54 -26z"/>
<path d="M5118 5693 c-72 -45 -59 -160 21 -178 36 -8 95 16 110 43 29 54 2
121 -56 143 -33 12 -44 11 -75 -8z"/>
<path d="M3800 5680 c-6 -11 -14 -43 -17 -71 -5 -42 -3 -49 9 -44 21 8 51 76
46 105 -4 31 -24 36 -38 10z"/>
<path d="M4405 5645 c-14 -13 -25 -32 -25 -43 0 -25 36 -62 61 -62 24 0 69 43
69 65 0 21 -44 65 -65 65 -9 0 -27 -11 -40 -25z"/>
<path d="M2374 5635 c-19 -15 -19 -15 4 -35 18 -15 29 -17 42 -10 20 11 33 37
24 51 -8 14 -48 11 -70 -6z"/>
<path d="M3223 5626 c-4 -7 -23 -21 -40 -30 -40 -20 -66 -68 -60 -110 2 -17
-1 -42 -8 -56 -7 -14 -16 -42 -20 -63 -6 -30 -4 -37 8 -37 21 0 47 38 47 67 0
23 1 23 30 8 16 -8 40 -15 55 -15 14 0 25 -4 25 -10 0 -15 56 -40 92 -40 42 0
72 20 88 60 19 47 1 77 -55 92 -33 9 -45 17 -45 31 0 10 -15 34 -34 53 -19 19
-36 41 -40 49 -7 19 -32 20 -43 1z"/>
<path d="M2090 5610 c-13 -8 -13 -11 2 -26 19 -19 38 -11 38 17 0 21 -16 24
-40 9z"/>
<path d="M6626 5569 c-33 -26 -56 -69 -56 -106 0 -28 43 -161 71 -218 19 -37
18 -148 -1 -170 -20 -24 0 -50 36 -50 20 0 32 7 38 21 5 11 22 26 37 33 21 9
32 24 39 52 6 22 27 57 46 78 38 43 42 71 20 161 -13 51 -28 90 -61 150 -19
36 -73 70 -110 70 -18 0 -44 -9 -59 -21z"/>
<path d="M2177 5552 c-48 -52 16 -165 68 -122 30 25 8 119 -30 134 -22 8 -20
9 -38 -12z"/>
<path d="M4028 5554 c-48 -26 -51 -84 -6 -117 22 -17 33 -19 55 -11 61 21 69
100 13 129 -34 18 -28 18 -62 -1z"/>
<path d="M3027 5518 c-17 -26 -67 -180 -67 -206 0 -9 -27 -55 -60 -101 -45
-62 -60 -92 -60 -117 0 -21 -8 -42 -20 -54 -52 -52 15 -110 75 -66 16 12 18
19 9 43 -9 26 -6 31 37 70 27 25 55 63 68 93 31 71 78 317 65 338 -16 25 -32
25 -47 0z"/>
<path d="M4637 5509 c-26 -15 -39 -56 -26 -81 16 -29 72 -50 104 -38 17 7 24
7 20 0 -3 -6 -6 -27 -7 -49 -1 -68 45 -111 119 -111 48 0 113 62 113 109 0
110 -142 165 -208 82 -11 -14 -11 -14 -6 2 8 23 -14 75 -37 87 -23 13 -49 12
-72 -1z"/>
<path d="M3691 5497 c-43 -15 -53 -37 -16 -37 46 0 115 22 115 36 0 17 -51 18
-99 1z"/>
<path d="M1433 5465 c-33 -14 -93 -87 -93 -112 0 -8 -9 -31 -19 -51 -20 -38
-51 -155 -51 -191 0 -11 20 -43 45 -71 25 -28 45 -58 45 -68 0 -29 38 -81 65
-88 14 -3 25 -12 25 -19 0 -6 9 -20 20 -30 16 -15 26 -17 48 -9 35 12 40 46
12 72 -20 19 -20 21 -5 30 16 8 16 15 5 61 -12 50 -11 55 23 134 74 175 81
235 36 298 -22 31 -73 59 -106 59 -10 -1 -32 -7 -50 -15z"/>
<path d="M5143 5454 c-15 -39 38 -67 60 -32 8 12 7 21 -2 32 -17 21 -50 20
-58 0z"/>
<path d="M2670 5395 c-7 -9 -11 -18 -8 -20 9 -10 38 7 38 21 0 18 -14 18 -30
-1z"/>
<path d="M3765 5386 c-31 -13 -55 -51 -55 -86 0 -30 49 -63 84 -56 89 18 104
126 21 149 -11 3 -34 0 -50 -7z"/>
<path d="M3190 5325 c-14 -17 -5 -51 17 -59 14 -6 63 17 63 30 0 38 -56 58
-80 29z"/>
<path d="M5143 5333 c-28 -6 -72 -50 -80 -80 -12 -49 61 -116 127 -116 79 0
135 79 96 137 -29 45 -89 70 -143 59z"/>
<path d="M3536 5311 c-38 -25 -66 -70 -66 -105 0 -23 -3 -27 -12 -18 -21 21
-66 14 -100 -17 l-32 -28 -33 19 c-24 15 -47 19 -83 16 -46 -3 -50 -1 -50 19
0 56 -46 20 -63 -49 -5 -24 -10 -63 -11 -87 0 -36 5 -48 31 -71 l31 -28 -44
-38 c-25 -22 -70 -62 -102 -90 -64 -57 -102 -84 -116 -84 -6 0 -5 5 2 12 7 7
12 21 12 33 -1 26 -52 120 -65 119 -5 -1 -18 -18 -28 -38 -23 -49 -42 -46 -56
8 -6 25 -16 48 -21 51 -6 4 -31 -1 -56 -11 -44 -17 -74 -53 -74 -89 0 -9 -4
-14 -8 -11 -5 3 -7 19 -4 36 6 43 -13 37 -32 -10 -9 -22 -17 -40 -18 -40 -2 0
-3 18 -3 40 0 25 5 40 13 40 15 0 16 22 0 38 -17 17 -26 15 -32 -6 -3 -10 -14
-18 -24 -18 -14 0 -18 7 -18 31 1 16 4 35 8 40 3 6 9 45 13 87 6 68 5 79 -10
84 -24 10 -32 -9 -40 -90 -5 -50 -4 -71 4 -74 8 -3 7 -8 -4 -16 -11 -8 -18
-30 -20 -61 -2 -37 -8 -52 -22 -58 -11 -5 -24 -21 -30 -37 -15 -39 -56 -65
-82 -51 -11 6 -29 11 -40 11 -11 0 -29 9 -39 20 -17 18 -21 19 -31 6 -7 -8
-27 -18 -44 -21 -18 -4 -49 -18 -71 -32 -21 -14 -35 -20 -32 -14 10 16 -5 61
-20 61 -10 0 -14 -15 -14 -54 0 -65 -12 -77 -36 -36 -18 29 -44 41 -44 19 0
-5 11 -26 25 -46 18 -27 22 -41 15 -54 -6 -10 -10 -28 -10 -40 0 -18 -2 -19
-15 -9 -8 7 -15 23 -15 36 0 60 -44 102 -54 52 -14 -68 -14 -87 0 -114 8 -15
12 -39 9 -51 -3 -15 -1 -23 8 -23 20 0 18 -40 -5 -97 -18 -45 -20 -56 -9 -80
15 -33 5 -148 -15 -181 -11 -17 -19 -20 -32 -14 -36 19 -127 22 -150 6 -21
-14 -22 -14 -22 5 0 12 5 21 10 21 6 0 10 5 10 10 0 6 -9 10 -20 10 -11 0 -20
-7 -20 -15 0 -10 -10 -15 -28 -15 -19 0 -39 -11 -62 -35 l-33 -34 -25 19 c-43
35 -92 21 -92 -25 0 -32 35 -59 78 -61 58 -2 68 -10 64 -48 -3 -26 2 -39 25
-62 35 -35 33 -52 -7 -46 -20 3 -32 -1 -40 -15 -9 -14 -21 -18 -46 -15 -48 6
-82 -5 -89 -28 -3 -10 -14 -22 -24 -25 -20 -6 -41 -45 -41 -75 0 -13 -7 -20
-19 -20 -29 0 -60 -31 -67 -67 -5 -26 -1 -37 19 -57 34 -34 79 -34 114 0 14
14 26 24 27 22 2 -2 18 -30 36 -63 48 -84 108 -142 165 -156 45 -11 70 -29 41
-29 -10 0 -16 -9 -16 -21 0 -18 4 -20 30 -14 32 7 41 -10 18 -33 -8 -8 -8 -15
2 -27 16 -19 32 -19 78 2 20 9 40 15 44 15 5 -1 17 7 28 18 11 11 28 20 38 20
10 0 27 7 38 15 45 34 53 1 21 -92 l-11 -32 -30 26 c-23 19 -37 23 -60 19 -36
-7 -77 -44 -74 -66 1 -8 -8 -31 -20 -50 -12 -19 -22 -42 -22 -50 0 -9 -13 -21
-30 -27 -38 -14 -57 -54 -44 -91 9 -25 6 -30 -36 -64 -41 -33 -46 -35 -62 -21
-10 9 -26 13 -39 10 -16 -4 -19 -3 -10 6 21 21 12 62 -19 92 -17 16 -30 37
-30 46 0 10 -5 21 -10 24 -6 4 -3 17 10 35 25 36 25 76 0 118 -43 69 -100 67
-172 -9 -52 -53 -62 -95 -31 -120 15 -13 13 -15 -13 -20 -66 -15 -100 -10
-125 17 -16 18 -20 28 -12 31 24 9 63 45 63 58 0 21 -32 35 -53 24 -11 -7 -17
-7 -17 0 0 5 13 12 29 16 33 7 57 30 63 60 2 11 13 21 25 23 30 4 44 25 47 69
2 28 12 48 35 70 38 38 40 75 6 108 -68 69 -200 -11 -155 -95 9 -16 3 -24 -32
-48 -58 -39 -132 -76 -215 -107 -49 -17 -61 -20 -43 -7 52 35 70 63 70 107 0
22 -7 50 -15 61 -20 26 -19 33 5 27 28 -7 39 26 15 43 -26 20 -55 17 -55 -3
-1 -17 -1 -17 -11 0 -14 23 -62 47 -97 47 -37 0 -90 -35 -119 -79 -30 -44 -30
-105 0 -161 36 -67 92 -90 162 -66 11 4 8 0 -7 -8 -37 -22 -42 -45 -27 -126
11 -61 10 -72 -4 -94 -20 -29 -22 -57 -6 -73 8 -8 4 -15 -17 -26 -64 -33 -87
-95 -51 -134 11 -13 14 -30 10 -59 -13 -96 49 -112 129 -32 10 10 23 18 28 18
6 0 19 18 29 41 l18 40 7 -28 c4 -15 24 -53 45 -83 21 -30 46 -72 54 -92 20
-47 48 -62 103 -53 55 8 192 75 234 115 32 29 33 39 15 83 -5 13 -2 17 13 17
26 0 82 47 82 68 0 12 4 9 13 -8 10 -19 21 -25 45 -25 27 0 32 -4 32 -23 0
-13 5 -32 10 -43 8 -14 8 -19 -1 -17 -29 7 -16 -23 20 -48 22 -14 38 -30 35
-35 -3 -5 -36 -9 -73 -9 -53 0 -72 -4 -84 -18 -10 -10 -17 -24 -17 -30 0 -22
48 -44 88 -40 38 3 38 3 28 -25 -14 -36 8 -78 47 -91 39 -14 81 19 85 67 3 30
-2 39 -26 57 l-30 22 22 33 c14 23 32 35 56 40 72 15 80 14 80 -7 0 -15 -4
-18 -17 -13 -32 13 -58 16 -72 6 -20 -13 -5 -30 49 -55 37 -17 46 -26 39 -37
-5 -8 -14 -31 -19 -51 -8 -29 -17 -39 -38 -44 -53 -12 -62 -16 -57 -24 3 -4
-2 -13 -10 -20 -15 -12 -55 -110 -55 -134 0 -8 -13 -27 -28 -44 l-28 -30 4 28
c3 21 -4 34 -30 59 -18 17 -39 31 -46 31 -27 0 -52 -21 -52 -44 0 -29 -33 -44
-82 -38 -30 3 -42 -1 -62 -22 -44 -43 -30 -96 29 -116 52 -17 86 -51 74 -73
-6 -9 -8 -21 -5 -26 9 -14 -81 -34 -126 -28 -55 7 -102 -13 -128 -55 -25 -41
-25 -74 0 -115 25 -42 53 -56 105 -51 l42 3 -35 -64 c-32 -60 -33 -67 -23
-102 7 -24 26 -50 50 -69 31 -26 37 -35 33 -60 -5 -34 20 -80 44 -80 10 0 14
6 11 15 -5 11 2 14 28 13 43 -2 47 -26 10 -70 -34 -40 -33 -82 4 -119 21 -21
39 -29 64 -29 36 0 87 32 87 54 0 8 12 11 34 8 42 -5 93 21 114 57 14 25 17
26 31 12 15 -15 13 -17 -14 -31 -55 -27 -43 -79 24 -107 30 -13 35 -12 52 3
10 9 19 27 19 39 0 28 27 40 49 23 9 -7 17 -13 18 -13 2 -1 -1 -16 -6 -33 -20
-67 30 -141 94 -142 11 -1 29 -15 40 -33 27 -43 83 -62 128 -43 48 20 66 47
78 113 9 51 8 66 -6 93 -20 39 -85 70 -130 63 -19 -3 -35 0 -39 6 -4 6 -3 11
2 11 14 0 32 48 32 88 0 102 -127 172 -203 112 -14 -11 -33 -20 -42 -20 -22 0
-72 -27 -78 -42 -3 -7 -3 5 0 28 6 48 -16 99 -47 109 -17 5 -18 8 -6 21 8 7
16 17 18 21 1 5 20 16 42 26 21 10 40 26 43 37 3 10 19 24 36 31 17 7 45 29
62 49 70 82 92 100 124 100 l32 0 -26 -27 c-32 -35 -32 -48 4 -84 35 -35 66
-37 98 -7 l23 21 0 -22 c0 -26 51 -82 58 -63 2 8 -6 24 -18 37 -21 22 -22 31
-18 105 4 68 8 83 26 96 13 9 22 26 22 42 l0 27 16 -30 c18 -36 32 -51 39 -43
3 3 -4 22 -15 41 -22 36 -24 78 -5 84 6 1 18 -11 27 -27 16 -29 84 -68 95 -56
3 3 -1 16 -10 29 -14 22 -14 24 1 24 30 1 43 -17 30 -40 -15 -29 -4 -149 21
-221 l21 -58 -25 6 c-14 3 -35 9 -48 12 -29 7 -77 -30 -77 -60 0 -26 38 -66
64 -66 9 0 27 5 38 11 16 8 22 8 29 -2 4 -8 4 -18 -1 -23 -6 -6 -10 -26 -10
-45 0 -27 8 -42 38 -70 l38 -37 -18 -29 c-38 -63 -12 -157 53 -191 40 -20 101
-14 141 16 l29 21 26 -20 c65 -52 172 4 173 91 0 39 -30 73 -74 84 -12 3 -32
24 -45 48 -37 71 -93 84 -170 39 -25 -14 -40 -20 -34 -11 7 8 16 36 19 62 4
25 8 46 9 46 1 0 22 -7 45 -15 71 -25 105 -20 136 20 14 19 34 35 44 35 22 0
70 44 70 65 0 14 3 14 32 -1 22 -12 45 -15 80 -11 26 3 48 4 48 2 0 -3 -16
-20 -36 -38 -29 -26 -37 -41 -38 -72 -1 -33 3 -41 26 -53 32 -15 88 -4 119 24
28 25 25 85 -4 112 -13 12 -30 22 -38 22 -8 1 17 11 54 24 69 24 107 24 107 1
0 -7 -7 -18 -16 -25 -30 -26 -36 -50 -20 -75 21 -31 20 -32 -9 -39 -35 -9 -35
-58 1 -91 15 -14 31 -25 37 -25 5 0 -2 -11 -17 -25 -29 -26 -31 -37 -16 -66 7
-12 21 -19 40 -19 24 0 30 -4 30 -21 0 -11 5 -29 10 -40 10 -18 7 -19 -44 -19
-77 0 -86 -5 -86 -52 0 -37 3 -41 38 -55 l39 -15 -5 -49 c-4 -42 -1 -54 18
-74 26 -27 80 -33 153 -16 34 8 37 7 32 -9 -7 -22 26 -60 51 -60 27 0 54 20
54 40 0 12 8 20 22 22 48 7 60 103 24 204 -7 22 -12 52 -9 67 5 26 6 26 34 12
63 -33 150 -14 217 48 l22 21 88 -41 c48 -23 135 -60 193 -83 58 -23 118 -52
134 -66 25 -22 30 -23 44 -9 49 47 96 75 139 80 26 4 59 10 74 15 22 7 28 5
33 -10 3 -11 18 -29 32 -40 18 -14 21 -20 10 -20 -9 0 -19 4 -22 10 -9 15 -23
12 -46 -11 -12 -12 -18 -27 -15 -36 5 -13 4 -14 -8 -4 -32 26 -93 -20 -82 -62
8 -32 50 -51 79 -36 12 7 19 8 15 4 -11 -12 22 -62 49 -74 68 -31 137 10 152
89 5 25 9 36 10 24 2 -31 30 -52 89 -66 46 -10 55 -9 69 5 14 13 14 20 4 46
-8 17 -10 43 -6 61 5 21 2 37 -8 48 -7 9 -17 26 -20 37 -5 16 -3 15 11 -4 9
-14 38 -46 65 -73 26 -26 47 -51 47 -54 0 -4 -12 -18 -26 -31 -27 -24 -29 -49
-9 -98 8 -18 7 -18 -8 -6 -21 17 -66 7 -74 -17 -4 -9 -15 -28 -25 -41 -20 -26
-24 -82 -7 -113 14 -26 74 -51 102 -42 28 8 67 44 67 61 0 16 1 16 36 -2 58
-30 113 -12 181 58 23 23 53 49 66 56 23 12 29 11 52 -7 78 -62 185 -12 185
86 0 38 -34 80 -78 99 -37 15 -77 7 -115 -26 -16 -13 -22 -10 -75 41 -31 31
-68 59 -82 63 -14 5 -31 16 -38 26 -15 22 -42 25 -60 7 -16 -16 -15 -11 4 48
9 27 28 61 42 76 15 17 23 34 20 46 -4 15 -1 18 12 15 53 -14 84 57 34 79 -31
14 -57 1 -62 -30 -3 -18 -6 -20 -28 -10 -13 6 -24 16 -24 21 0 5 -16 25 -36
44 -24 22 -33 38 -27 44 11 11 57 -3 79 -26 18 -17 57 -20 85 -5 16 9 19 7 19
-9 0 -27 46 -61 82 -61 43 0 88 48 88 93 0 48 -49 91 -96 85 -31 -4 -32 -3
-27 28 4 23 0 37 -14 51 -19 19 -19 21 -2 31 9 6 20 25 24 42 4 17 10 29 13
27 4 -2 22 -10 40 -17 17 -8 35 -22 38 -32 8 -25 42 -33 63 -14 10 9 27 16 39
16 49 0 83 80 47 110 -8 7 -15 27 -15 45 0 40 -21 59 -60 53 -19 -3 -31 0 -35
10 -6 17 2 32 20 32 19 0 75 67 75 90 0 10 -7 23 -16 28 -13 7 -10 11 16 22
24 10 43 10 76 3 52 -12 56 -2 14 34 -44 36 -40 58 5 32 26 -16 44 -19 68 -15
51 11 108 7 124 -9 8 -8 20 -15 28 -15 7 0 15 -7 18 -15 5 -11 -4 -9 -37 7
-58 28 -89 19 -128 -37 -18 -25 -37 -45 -44 -45 -22 0 -64 -41 -64 -63 0 -12
-7 -31 -15 -41 -22 -29 -18 -54 12 -84 17 -17 26 -35 24 -50 -3 -29 15 -52 43
-52 45 0 61 47 26 77 -22 19 -11 43 22 43 11 0 28 5 39 11 25 13 59 2 59 -19
0 -18 55 -82 70 -82 13 0 40 30 40 44 0 6 -5 17 -11 23 -8 8 -3 16 21 28 60
31 76 124 29 173 -13 15 -15 22 -6 22 12 0 87 72 87 84 0 8 -29 43 -59 72 -25
23 -25 23 -6 57 22 41 16 61 -25 86 -24 14 -28 20 -16 24 9 4 16 15 16 25 0
15 6 17 35 14 38 -4 75 18 75 45 0 16 -5 16 54 -2 57 -17 96 -11 96 16 0 27
-34 40 -98 37 -44 -2 -61 1 -74 14 -27 27 -73 23 -98 -9 -11 -15 -18 -33 -16
-40 3 -8 -2 -13 -14 -13 -21 0 -23 10 -20 103 1 26 -4 54 -10 62 -9 11 -7 15
13 20 35 9 59 38 62 75 1 17 7 36 14 43 6 6 11 18 11 27 0 9 6 23 13 32 11 15
18 15 81 -5 50 -16 71 -28 77 -44 6 -17 4 -23 -12 -28 -10 -4 -19 -11 -19 -16
0 -5 -4 -9 -10 -9 -5 0 -10 7 -10 15 0 8 -11 22 -25 31 -23 15 -27 15 -50 0
-29 -19 -48 -51 -43 -74 2 -9 -7 -25 -20 -36 -48 -38 -6 -118 52 -97 12 4 25
21 30 38 5 16 22 37 38 46 27 15 31 15 53 1 14 -9 31 -14 39 -11 14 6 49 -62
76 -146 7 -21 19 -41 27 -44 11 -4 9 -11 -12 -33 -16 -17 -25 -36 -23 -49 2
-15 -6 -26 -31 -38 -44 -23 -50 -40 -16 -49 19 -5 35 -1 55 15 16 11 41 21 55
21 31 0 65 32 65 62 0 12 -8 31 -17 42 -16 18 -15 18 11 -2 16 -12 35 -22 43
-22 8 0 34 -19 57 -43 38 -38 81 -63 139 -81 9 -3 17 -14 17 -24 0 -25 36 -62
60 -62 10 0 30 5 43 11 21 9 30 7 56 -12 26 -19 34 -21 56 -11 61 28 48 117
-22 150 -30 14 -36 14 -68 -1 -56 -27 -60 -24 -57 41 3 50 -1 66 -33 127 -20
39 -43 77 -50 85 -7 8 -18 32 -25 53 -7 23 -22 43 -38 51 -15 8 -54 40 -87 72
l-60 57 61 12 c67 13 83 20 102 47 9 12 21 16 40 12 32 -7 82 27 82 55 0 14
14 20 68 30 142 25 122 49 -45 52 l-123 2 -19 36 c-18 36 -18 37 1 61 10 13
17 29 14 37 -5 12 12 18 43 13 7 -1 24 1 37 4 31 8 32 49 2 70 -20 14 -25 14
-45 1 -12 -8 -31 -15 -42 -15 -11 0 -23 -5 -26 -10 -3 -5 -16 -10 -29 -10 -29
0 -56 -29 -56 -62 0 -19 -6 -27 -24 -32 -13 -3 -37 -19 -52 -35 l-27 -29 -24
29 c-14 16 -39 31 -59 35 -38 7 -42 25 -23 99 6 22 13 50 16 63 3 13 -1 30 -9
40 -9 9 -18 31 -21 47 -3 17 -8 37 -12 46 -5 14 1 15 43 11 45 -4 52 -2 66 20
12 18 23 24 39 21 33 -6 77 32 77 67 0 29 -38 70 -65 70 -21 0 -65 -41 -65
-60 0 -13 -5 -17 -15 -14 -10 4 -15 19 -15 43 0 51 -35 85 -83 79 -30 -3 -38
1 -56 28 -12 18 -19 38 -15 47 5 15 10 14 36 -8 32 -27 58 -31 88 -15 15 8 20
6 25 -13 10 -32 45 -67 67 -67 10 0 30 12 45 26 23 23 25 30 18 80 l-7 55 29
-7 c15 -3 41 -15 56 -26 16 -11 31 -17 34 -14 3 3 13 -3 22 -14 36 -41 91 -28
91 21 0 48 -54 109 -83 93 -9 -5 -9 -4 1 7 16 17 15 44 -2 58 -8 6 -19 32 -25
57 -13 50 -33 55 -41 9 -5 -25 -6 -27 -19 -12 -19 24 -57 21 -78 -6 l-17 -24
-33 23 c-18 12 -51 25 -73 29 -36 6 -38 8 -29 29 9 20 17 22 80 20 101 -2 144
36 104 93 -14 21 -14 22 12 25 37 4 45 51 13 68 -12 6 -24 9 -27 6 -3 -2 -15
7 -28 22 -33 38 -97 38 -131 -1 -13 -15 -29 -27 -36 -25 -7 1 -23 -2 -36 -6
-18 -6 -22 -14 -20 -34 3 -24 8 -27 38 -27 39 0 50 -9 50 -43 0 -19 -4 -21
-24 -16 -13 3 -27 1 -30 -5 -4 -6 -25 7 -51 32 -24 23 -53 50 -64 60 -28 23
-27 47 2 47 12 0 29 5 37 10 13 9 13 11 0 20 -8 5 -30 10 -48 10 -18 0 -44 7
-57 16 -14 9 -39 14 -62 12 l-38 -3 -1 52 c0 35 -7 59 -18 71 -20 23 -8 36 38
45 24 4 35 -1 61 -28 l31 -34 -24 -6 c-33 -8 -22 -28 22 -39 26 -6 62 -4 119
8 45 9 106 16 135 16 39 0 54 4 59 16 8 21 -14 34 -59 34 -38 0 -38 0 -38 41
0 33 -6 47 -34 75 -19 19 -44 34 -55 34 -28 0 -81 -27 -81 -42 0 -14 -123 -4
-128 12 -8 22 -54 70 -68 70 -12 0 -12 5 1 31 9 17 15 40 14 52 -1 12 1 30 6
40 8 19 -22 144 -37 153 -5 4 0 13 11 21 26 17 28 60 4 67 -10 3 -35 2 -55 -3
-20 -5 -48 -6 -62 -4 -18 4 -28 0 -32 -11 -3 -9 -12 -16 -19 -16 -6 0 -19 -8
-28 -18 -40 -43 -3 -118 54 -110 35 5 43 -9 43 -79 1 -53 1 -53 -30 -53 -17 0
-37 -6 -43 -14 -12 -15 -41 -14 -150 5 -36 6 -64 18 -87 38 -33 30 -41 32
-184 49 -64 8 -68 11 -55 44 7 16 1 17 -67 12 -53 -5 -81 -3 -99 7 -13 7 -34
12 -46 10 -13 -1 -33 5 -45 13 -50 35 -162 10 -174 -39 -4 -18 -13 -25 -31
-25 -35 0 -61 -17 -83 -53 l-20 -32 -2 35 c0 19 -1 42 0 52 2 19 -21 40 -46
43 -9 1 -30 7 -45 13 -39 17 -95 -7 -110 -47 -11 -29 -11 -29 -22 -8 -13 27
-57 34 -79 12 -9 -9 -14 -20 -11 -25 3 -4 -2 -13 -10 -20 -8 -7 -15 -18 -15
-24 0 -6 -7 -20 -15 -30 -24 -31 -40 -5 -43 67 -1 61 0 65 33 97 19 19 35 40
35 46 0 21 -20 27 -38 11 -14 -13 -105 -57 -118 -57 -14 0 0 22 20 31 13 6 29
23 36 37 15 35 -14 76 -57 80 -38 4 -77 -39 -68 -75 4 -18 1 -23 -13 -23 -35
0 -56 24 -48 56 4 16 10 44 13 63 5 32 4 34 -21 29 -15 -3 -29 -1 -32 3 -3 5
-16 9 -29 9 -21 0 -24 5 -30 66 -7 62 -23 94 -47 94 -7 0 -39 -29 -72 -64 -57
-60 -86 -73 -86 -39 0 8 18 31 40 50 77 70 73 169 -10 226 -32 23 -98 22 -134
-2z m829 -695 l28 -39 -57 6 c-32 3 -60 7 -62 9 -10 11 11 48 27 48 10 0 21 5
24 11 4 6 8 9 9 7 1 -2 15 -21 31 -42z m1303 -136 c-7 -10 -14 -17 -17 -15 -4
4 18 35 25 35 2 0 -1 -9 -8 -20z m-3971 -432 c-3 -8 -6 -5 -6 6 -1 11 2 17 5
13 3 -3 4 -12 1 -19z m-12 -38 c3 -5 1 -10 -4 -10 -6 0 -11 5 -11 10 0 6 2 10
4 10 3 0 8 -4 11 -10z m-804 -1040 c14 0 10 -32 -11 -70 l-18 -35 -6 28 c-14
66 -15 74 -9 81 4 4 13 4 21 1 7 -3 18 -5 23 -5z m402 -33 c-2 -37 -69 -117
-98 -117 -12 0 -28 -7 -35 -15 -7 -8 -23 -15 -35 -15 l-23 0 28 56 c52 101
168 166 163 91z m-259 -89 c20 -29 20 -42 0 -34 -18 7 -84 -21 -84 -36 0 -5
-5 -6 -10 -3 -12 8 -1 30 34 68 30 33 40 34 60 5z m491 -828 c-3 -5 -13 -10
-21 -10 -8 0 -12 5 -9 10 3 6 13 10 21 10 8 0 12 -4 9 -10z m102 -96 c18 -5
37 -1 57 10 35 20 58 7 33 -18 -9 -9 -30 -43 -48 -75 -25 -45 -36 -57 -50 -54
-26 7 -35 -23 -15 -46 9 -10 16 -33 16 -52 0 -27 -6 -38 -28 -51 -19 -11 -33
-14 -42 -7 -8 5 -29 8 -47 7 -37 -3 -73 25 -66 51 2 10 -3 26 -12 35 -19 18
-57 15 -107 -9 l-27 -13 21 28 c20 28 21 61 3 115 -5 18 0 22 37 32 54 15 84
2 67 -28 -6 -11 -7 -28 -3 -37 4 -9 6 -24 5 -33 -1 -9 5 -21 12 -28 17 -13 47
-5 47 14 0 6 9 20 20 30 27 24 25 49 -5 73 l-24 19 24 23 c14 13 25 29 25 36
0 7 8 17 18 23 13 8 22 4 40 -14 12 -14 35 -28 49 -31z m3181 -74 c35 0 42 -3
42 -19 0 -11 11 -32 24 -48 22 -27 23 -32 13 -82 -10 -53 -10 -53 -24 -28 -13
25 -19 29 -77 42 l-29 6 37 25 c42 28 44 39 15 55 -29 15 -69 -3 -69 -32 0
-17 -3 -19 -14 -10 -7 6 -11 22 -8 36 3 16 -2 33 -14 47 l-19 21 40 -6 c22 -4
59 -7 83 -7z m-2676 -92 l-7 -36 -28 24 c-19 16 -23 24 -13 24 8 0 20 9 27 21
16 30 28 11 21 -33z m349 -102 c-12 -12 -21 -29 -21 -37 0 -12 -2 -12 -10 1
-14 21 -12 74 2 88 9 9 16 7 31 -9 19 -20 19 -21 -2 -43z m2229 -51 c11 3 20
-1 24 -10 4 -12 -2 -15 -28 -15 -34 0 -86 -32 -86 -53 0 -6 -10 -21 -21 -34
-18 -18 -20 -25 -9 -38 7 -8 18 -15 25 -15 7 0 16 -15 19 -34 11 -59 62 -84
125 -62 22 8 23 6 17 -20 -4 -16 -9 -39 -10 -52 -2 -14 -16 -31 -34 -42 -36
-22 -39 -35 -16 -68 16 -23 43 -29 60 -13 5 6 15 1 26 -13 16 -22 16 -23 -7
-19 -12 3 -26 0 -29 -6 -5 -7 -13 -8 -24 -2 -26 14 -86 -14 -80 -37 4 -15 1
-18 -17 -14 -23 4 -23 4 -4 23 30 30 26 45 -32 162 -8 15 -7 16 11 5 16 -10
22 -10 36 4 18 18 12 53 -12 62 -19 7 -62 -24 -56 -42 2 -7 -2 -10 -11 -6 -8
3 -22 -2 -31 -11 -15 -15 -16 -15 -16 2 0 11 -6 28 -14 38 -12 17 -12 21 5 33
10 7 29 10 43 6 65 -16 87 27 36 73 -16 14 -30 32 -30 39 0 21 -39 27 -65 10
-14 -9 -25 -20 -25 -25 0 -5 -12 -11 -26 -14 -28 -5 -28 -6 -3 63 6 19 16 47
22 62 l9 28 30 -25 c36 -30 52 -31 78 -5 24 24 24 22 5 84 -8 26 -12 52 -9 57
3 5 28 -11 56 -36 34 -30 57 -44 68 -40z m-2266 -54 c14 -26 14 -30 1 -41 -16
-13 -17 -12 -19 43 -2 34 0 34 18 -2z m2676 25 c0 -11 -19 -15 -25 -6 -3 5 1
10 9 10 9 0 16 -2 16 -4z m-3707 -196 c-3 -12 -8 -19 -11 -16 -5 6 5 36 12 36
2 0 2 -9 -1 -20z m2146 -22 c-11 -20 -14 -20 -17 -5 -2 9 -9 17 -15 18 -7 1
-1 4 13 8 32 10 34 8 19 -21z m-159 -7 c-16 -31 -12 -51 18 -80 l28 -28 -28
-11 c-25 -9 -32 -7 -57 19 -31 31 -59 37 -79 17 -9 -9 -12 -7 -12 10 0 14 -8
26 -22 31 -19 7 -17 9 15 9 22 0 54 10 80 26 52 31 72 34 57 7z m1154 -136 c3
-8 1 -15 -4 -15 -6 0 -10 7 -10 15 0 8 2 15 4 15 2 0 6 -7 10 -15z m216 -165
c12 -8 11 -10 -7 -10 -13 0 -31 -8 -41 -18 -18 -18 -19 -17 -29 5 -6 13 -7 21
-3 18 4 -3 19 -1 32 4 30 12 30 12 48 1z"/>
<path d="M4460 5241 c-14 -26 -3 -50 26 -57 42 -11 72 34 42 64 -18 18 -56 14
-68 -7z"/>
<path d="M2277 5243 c-11 -11 -8 -48 5 -61 19 -19 36 -14 54 13 13 20 14 28 4
40 -13 15 -51 20 -63 8z"/>
<path d="M2065 5220 c-3 -6 -30 -7 -65 -3 -53 5 -60 4 -84 -20 -55 -55 -22
-143 61 -166 36 -10 75 -2 88 19 3 5 22 17 41 25 32 13 34 17 34 60 0 35 -6
52 -25 70 -26 27 -40 31 -50 15z"/>
<path d="M5456 5201 c-14 -15 -15 -24 -7 -39 21 -40 91 -32 91 11 0 47 -52 64
-84 28z"/>
<path d="M6380 5200 c-51 -51 3 -132 73 -108 34 12 49 40 41 73 -13 52 -77 72
-114 35z"/>
<path d="M2600 5158 c0 -13 -9 -43 -20 -67 -25 -53 -25 -54 -1 -42 18 10 19 8
14 -29 -6 -46 13 -57 23 -12 3 15 12 44 20 65 17 46 17 47 -1 47 -8 0 -15 5
-15 11 0 6 9 8 20 4 30 -10 25 19 -5 33 -34 16 -35 16 -35 -10z"/>
<path d="M4165 5124 c-32 -34 -32 -68 0 -99 40 -41 75 -27 75 30 0 27 -32 95
-45 95 -3 0 -17 -12 -30 -26z"/>
<path d="M5606 5089 c-35 -28 -33 -73 6 -102 32 -24 71 -17 94 18 18 28 12 57
-19 85 -27 26 -48 25 -81 -1z"/>
<path d="M3920 5060 c-23 -45 -24 -50 -10 -50 5 0 16 12 23 27 14 26 15 26 21
5 12 -37 77 -41 90 -5 8 20 -20 63 -41 63 -9 0 -25 -8 -35 -17 -18 -16 -18
-16 -12 0 13 34 -16 16 -36 -23z"/>
<path d="M4286 5067 c-34 -34 -34 -80 -1 -112 13 -14 35 -25 48 -25 28 0 77
35 77 54 0 7 7 27 16 44 19 38 12 51 -24 51 -15 0 -41 3 -59 6 -26 6 -36 2
-57 -18z"/>
<path d="M4551 5055 c-31 -36 -40 -76 -21 -105 5 -9 5 -19 -1 -27 -14 -17 -2
-51 23 -64 24 -13 68 2 68 23 0 7 14 21 30 30 17 10 37 31 44 48 7 17 15 27
19 24 12 -12 56 6 62 27 14 42 -47 77 -75 44 -11 -13 -17 -12 -46 10 -44 34
-66 32 -103 -10z"/>
<path d="M5781 5076 c-21 -26 -9 -51 24 -51 27 0 30 3 30 30 0 23 -5 31 -21
33 -11 2 -26 -4 -33 -12z"/>
<path d="M5246 5064 c-9 -8 -16 -19 -16 -23 0 -16 29 -32 52 -29 29 4 36 37
12 55 -23 17 -29 16 -48 -3z"/>
<path d="M1726 5019 c-30 -36 -28 -56 13 -106 29 -35 36 -38 54 -23 7 6 22 18
34 28 56 42 27 132 -42 132 -25 0 -40 -8 -59 -31z"/>
<path d="M2400 4995 c0 -8 5 -15 10 -15 6 0 10 7 10 15 0 8 -4 15 -10 15 -5 0
-10 -7 -10 -15z"/>
<path d="M2542 4998 c-15 -15 -16 -38 -2 -38 12 0 23 25 18 40 -2 7 -7 7 -16
-2z"/>
<path d="M6005 4973 c-84 -22 -148 -151 -124 -248 34 -135 198 -198 312 -119
48 33 97 119 97 169 0 50 -49 136 -98 169 -34 24 -54 31 -105 32 -34 2 -71 0
-82 -3z"/>
<path d="M5497 4964 c-15 -16 -7 -53 14 -59 30 -10 58 19 43 43 -12 18 -45 28
-57 16z"/>
<path d="M5026 4929 c-32 -25 -35 -70 -6 -99 41 -41 110 -10 110 49 0 30 -38
71 -65 71 -7 0 -24 -9 -39 -21z"/>
<path d="M1632 4931 c-21 -13 -10 -52 20 -74 25 -19 28 -19 52 -3 28 18 34 54
14 74 -14 14 -67 16 -86 3z"/>
<path d="M1955 4910 c-8 -26 3 -60 20 -60 18 0 29 49 14 66 -16 19 -27 18 -34
-6z"/>
<path d="M6824 4910 c-28 -11 -54 -48 -54 -77 0 -14 -6 -23 -15 -23 -62 0
-127 -92 -106 -151 9 -25 7 -30 -12 -41 -31 -16 -57 -48 -57 -70 0 -22 43 -68
64 -68 26 0 76 50 76 77 0 38 30 24 46 -22 7 -22 21 -45 31 -52 27 -20 70 -16
87 9 22 32 20 62 -8 95 -22 26 -23 31 -10 53 16 30 18 71 3 103 -9 21 -7 28
15 50 39 39 34 87 -13 111 -16 9 -34 11 -47 6z"/>
<path d="M957 4904 c-9 -10 2 -24 18 -24 9 0 12 6 9 15 -6 16 -17 19 -27 9z"/>
<path d="M4308 4899 c-27 -16 -23 -65 7 -85 23 -15 27 -15 50 0 61 40 6 122
-57 85z"/>
<path d="M4650 4895 c-26 -32 13 -81 48 -59 34 22 22 74 -18 74 -10 0 -23 -7
-30 -15z"/>
<path d="M4812 4893 c-7 -2 -17 -14 -23 -25 -21 -39 47 -78 79 -46 17 17 15
42 -6 61 -19 17 -28 19 -50 10z"/>
<path d="M5214 4856 c-54 -54 -46 -129 18 -162 39 -20 92 -11 124 21 18 18 24
35 24 69 0 38 -5 48 -35 75 -49 42 -87 41 -131 -3z"/>
<path d="M1300 4857 c0 -8 7 -20 15 -27 8 -7 23 -31 34 -54 17 -39 107 -133
118 -123 2 3 -7 22 -20 44 -14 21 -28 57 -32 80 -9 55 -31 79 -77 87 -29 5
-38 4 -38 -7z"/>
<path d="M1850 4851 c0 -10 24 -21 46 -21 8 0 14 7 14 15 0 10 -10 15 -30 15
-16 0 -30 -4 -30 -9z"/>
<path d="M530 4833 c-35 -24 -40 -33 -40 -78 0 -48 30 -102 65 -115 60 -23
135 42 135 115 0 64 -29 95 -89 95 -27 0 -57 -7 -71 -17z"/>
<path d="M4490 4821 c0 -27 19 -36 37 -18 18 18 9 37 -18 37 -12 0 -19 -7 -19
-19z"/>
<path d="M2060 4790 c0 -13 5 -20 13 -17 6 2 12 10 12 17 0 7 -6 15 -12 18 -8
2 -13 -5 -13 -18z"/>
<path d="M4624 4759 c-3 -6 0 -18 9 -26 18 -18 37 -9 37 18 0 21 -34 27 -46 8z"/>
<path d="M1700 4732 c0 -22 36 -59 47 -48 9 9 -18 58 -34 64 -8 2 -13 -5 -13
-16z"/>
<path d="M1261 4683 c-11 -10 -24 -33 -27 -50 -6 -28 -1 -38 28 -67 30 -30 32
-36 21 -52 -17 -24 -17 -98 2 -134 13 -25 13 -29 0 -34 -8 -3 -23 -21 -32 -41
-16 -33 -16 -37 0 -70 17 -37 50 -52 87 -40 25 8 60 61 60 91 0 20 17 34 41
34 5 0 9 -13 9 -29 0 -34 49 -81 84 -81 28 0 76 46 76 72 0 24 -61 88 -84 88
-15 0 -15 3 -1 30 35 67 -36 180 -112 180 -17 0 -23 6 -23 20 0 12 -7 34 -15
50 -26 50 -75 64 -114 33z"/>
<path d="M972 4534 c-50 -35 1 -105 64 -90 29 8 33 49 8 84 -18 26 -41 28 -72
6z"/>
<path d="M1530 4540 c0 -5 7 -10 15 -10 8 0 15 5 15 10 0 6 -7 10 -15 10 -8 0
-15 -4 -15 -10z"/>
<path d="M346 4521 c-21 -11 -47 -29 -59 -40 -71 -67 -126 -109 -151 -115 -64
-16 -136 -96 -136 -152 0 -61 82 -124 161 -124 36 0 48 6 80 40 32 34 42 39
67 34 18 -4 41 0 59 10 33 16 83 70 83 89 0 6 11 23 25 37 15 16 30 48 37 81
14 72 -5 123 -56 144 -46 20 -64 19 -110 -4z"/>
<path d="M6217 4513 c-25 -25 27 -113 67 -113 24 0 64 21 71 38 15 39 -107
106 -138 75z"/>
<path d="M871 4424 c-25 -32 -26 -38 -5 -58 16 -16 50 -21 78 -10 22 9 20 50
-4 74 -27 27 -44 25 -69 -6z"/>
<path d="M6681 4359 c-28 -27 -25 -63 8 -67 59 -9 103 28 81 68 -14 27 -60 26
-89 -1z"/>
<path d="M6952 4327 c-27 -29 -28 -61 -2 -87 27 -27 71 -26 98 3 26 27 28 54
6 85 -21 30 -73 30 -102 -1z"/>
<path d="M6380 4225 c-18 -22 -1 -50 31 -50 20 0 24 5 24 30 0 23 -5 31 -21
33 -11 2 -27 -4 -34 -13z"/>
<path d="M6078 4223 c-55 -8 -26 -23 45 -23 78 0 117 7 117 21 0 9 -109 10
-162 2z"/>
<path d="M6474 4216 c-11 -28 4 -48 33 -44 22 2 28 8 28 28 0 20 -6 26 -28 28
-18 2 -29 -2 -33 -12z"/>
<path d="M1676 4183 c-3 -3 -3 -10 0 -14 7 -12 34 -11 34 0 0 11 -26 22 -34
14z"/>
<path d="M583 4173 c-20 -7 -15 -30 9 -47 25 -18 38 -13 38 14 0 21 -28 40
-47 33z"/>
<path d="M6930 4160 c-24 -24 -25 -34 -4 -54 25 -25 63 -20 76 10 11 23 10 29
-11 45 -29 24 -36 24 -61 -1z"/>
<path d="M6609 4144 c-16 -20 -1 -48 28 -52 31 -5 46 20 27 46 -18 26 -37 28
-55 6z"/>
<path d="M1075 4035 c-14 -13 -25 -30 -25 -37 0 -10 -11 -12 -39 -10 -78 8
-146 -59 -120 -119 14 -36 59 -69 92 -69 13 0 35 8 48 19 13 10 39 22 57 25
35 8 44 26 12 26 -37 0 -7 34 31 36 37 2 79 42 79 75 0 30 -53 79 -85 79 -14
0 -37 -11 -50 -25z"/>
<path d="M6712 4018 c-19 -19 -14 -37 13 -50 21 -10 29 -9 43 5 13 13 14 21 6
35 -14 21 -45 27 -62 10z"/>
<path d="M6830 3993 c-49 -18 -66 -75 -32 -106 28 -25 87 -22 106 5 22 32 20
55 -9 83 -24 25 -37 28 -65 18z"/>
<path d="M6522 3918 c-15 -15 -15 -34 1 -79 17 -50 35 -69 63 -69 24 0 64 31
64 51 0 17 -21 52 -48 82 -27 29 -60 35 -80 15z"/>
<path d="M1132 3838 c-19 -19 -13 -51 17 -87 21 -26 36 -34 59 -34 64 0 95 70
52 113 -23 23 -108 28 -128 8z"/>
<path d="M1063 3720 c-23 -10 -31 -44 -13 -55 6 -3 10 -15 10 -25 0 -29 38
-36 69 -13 36 27 38 56 5 82 -29 23 -38 24 -71 11z"/>
<path d="M6612 3658 c-32 -32 18 -87 53 -58 28 23 12 70 -25 70 -9 0 -21 -5
-28 -12z"/>
<path d="M1124 3599 c-16 -18 -16 -21 -2 -35 20 -20 58 -10 58 16 0 11 -8 24
-19 29 -14 8 -23 6 -37 -10z"/>
<path d="M1050 3547 c0 -32 9 -57 22 -57 14 0 5 73 -9 78 -8 2 -13 -6 -13 -21z"/>
<path d="M6595 3525 c-27 -26 -32 -54 -14 -72 9 -9 6 -19 -10 -39 -26 -33 -26
-45 0 -78 26 -33 68 -34 97 -3 25 27 28 59 7 80 -13 13 -13 16 0 27 23 19 19
76 -7 94 -31 22 -45 20 -73 -9z"/>
<path d="M6892 3487 c-13 -15 1 -82 19 -93 15 -9 49 26 49 51 0 22 -28 55 -47
55 -6 0 -15 -6 -21 -13z"/>
<path d="M6771 3464 c-12 -15 -21 -34 -21 -43 0 -9 -14 -29 -31 -44 -26 -23
-30 -32 -25 -57 4 -24 2 -30 -12 -30 -42 0 -58 -61 -22 -80 31 -16 60 -3 67
31 4 23 11 29 33 29 33 0 60 28 60 62 0 13 11 35 25 48 32 30 33 73 3 94 -32
23 -54 20 -77 -10z"/>
<path d="M497 3433 c-13 -12 -7 -23 13 -23 11 0 20 7 20 15 0 15 -21 21 -33 8z"/>
<path d="M6413 3343 c-19 -7 -16 -51 5 -62 16 -9 16 -10 -3 -16 -36 -11 -68
-30 -72 -42 -8 -24 44 -25 96 -3 56 25 68 50 24 50 -24 1 -25 2 -10 11 42 25
6 81 -40 62z"/>
<path d="M1354 3309 c-9 -16 21 -43 40 -36 9 4 16 16 16 27 0 15 -7 20 -24 20
-14 0 -28 -5 -32 -11z"/>
<path d="M6305 3296 c-13 -19 -14 -29 -5 -45 21 -41 64 -15 58 36 -4 37 -32
41 -53 9z"/>
<path d="M1500 3255 c-7 -8 -10 -25 -7 -37 4 -13 0 -29 -10 -40 -11 -12 -13
-25 -7 -45 4 -15 7 -43 5 -61 -5 -59 50 -98 99 -72 22 12 80 124 80 154 0 27
-27 66 -44 66 -8 0 -21 11 -30 25 -19 29 -66 34 -86 10z"/>
<path d="M6220 3225 c-17 -21 -9 -47 21 -64 24 -13 29 -13 53 2 28 19 34 45
14 65 -17 17 -73 15 -88 -3z"/>
<path d="M432 3214 c-28 -20 -28 -30 3 -50 24 -16 27 -16 45 1 25 23 25 41 1
55 -25 13 -22 13 -49 -6z"/>
<path d="M592 3194 c-51 -35 6 -94 62 -64 33 17 40 39 20 61 -21 23 -52 24
-82 3z"/>
<path d="M277 3113 c-13 -12 -7 -23 13 -23 11 0 20 7 20 15 0 15 -21 21 -33 8z"/>
<path d="M453 3069 c-18 -5 -51 -27 -73 -48 -34 -32 -40 -44 -40 -78 0 -66 64
-146 126 -159 40 -7 99 22 150 73 65 67 68 116 11 171 -52 50 -102 62 -174 41z"/>
<path d="M6791 2683 c-49 -62 31 -134 97 -87 29 20 29 64 -1 92 -32 30 -71 28
-96 -5z"/>
<path d="M188 2669 c-42 -24 -1 -67 47 -49 20 7 26 16 23 33 -3 25 -41 34 -70
16z"/>
<path d="M195 2570 c-15 -16 -16 -22 -5 -35 23 -28 48 -37 70 -25 26 14 25 26
-5 55 -29 30 -37 31 -60 5z"/>
<path d="M6900 2473 c-56 -22 -83 -89 -56 -141 20 -39 44 -52 96 -52 54 0 100
44 100 96 0 63 -82 120 -140 97z"/>
<path d="M6692 2453 c-7 -2 -17 -14 -23 -25 -21 -39 47 -78 79 -46 17 17 15
42 -6 61 -19 17 -28 19 -50 10z"/>
<path d="M822 2424 c-28 -20 -28 -34 1 -34 25 0 47 17 47 37 0 18 -21 16 -48
-3z"/>
<path d="M600 2406 c-85 -19 -100 -30 -100 -74 0 -39 28 -82 54 -82 42 0 110
36 143 75 20 24 45 46 55 49 13 3 18 11 16 23 -3 15 -14 18 -58 20 -30 1 -80
-4 -110 -11z"/>
<path d="M7232 2409 c-35 -13 -28 -70 10 -83 56 -20 96 58 43 82 -14 7 -27 12
-28 11 -1 0 -12 -4 -25 -10z"/>
<path d="M816 2364 c-19 -18 -19 -20 -6 -45 13 -23 47 -25 78 -3 27 19 28 40
3 54 -28 14 -57 12 -75 -6z"/>
<path d="M905 2300 c-22 -25 -11 -58 28 -79 22 -12 31 -11 64 2 49 19 52 52 8
78 -40 24 -78 23 -100 -1z"/>
<path d="M1076 2291 c-14 -15 -15 -24 -6 -40 20 -39 60 -14 60 38 0 27 -31 28
-54 2z"/>
<path d="M255 2286 c-18 -13 -18 -15 -2 -39 22 -34 21 -40 -3 -32 -27 9 -25
-3 9 -57 38 -60 37 -59 164 -85 59 -12 78 50 27 87 -17 12 -39 39 -50 60 -35
68 -101 98 -145 66z"/>
<path d="M5910 2200 c-25 -25 -26 -52 -2 -73 38 -34 102 -14 102 32 0 55 -61
80 -100 41z"/>
<path d="M7117 2012 c-24 -26 -21 -49 8 -68 23 -15 27 -15 50 0 30 19 32 46 7
69 -24 22 -45 21 -65 -1z"/>
<path d="M950 1981 c0 -5 5 -13 10 -16 17 -11 11 -25 -15 -35 -31 -12 -32 -25
-1 -45 19 -13 29 -14 45 -5 22 11 37 52 26 70 -10 15 -65 42 -65 31z"/>
<path d="M1085 1970 c-21 -23 -14 -46 19 -62 47 -21 98 36 64 70 -18 18 -63
14 -83 -8z"/>
<path d="M6002 1938 c-7 -7 -12 -19 -12 -27 0 -8 -7 -22 -16 -32 -17 -19 -7
-52 20 -62 22 -8 59 22 53 44 -3 11 -1 22 4 25 15 9 10 51 -7 58 -22 8 -28 8
-42 -6z"/>
<path d="M706 1921 c-16 -25 27 -62 48 -41 7 7 7 16 0 28 -13 20 -39 27 -48
13z"/>
<path d="M6153 1866 c-31 -14 -63 -60 -63 -91 0 -55 75 -115 123 -99 12 4 39
6 59 5 69 -4 107 30 108 96 0 56 -43 95 -104 92 -22 -1 -52 1 -66 4 -14 4 -39
1 -57 -7z"/>
<path d="M784 1809 c-17 -19 -17 -23 -3 -47 26 -48 109 -34 109 19 0 47 -72
66 -106 28z"/>
<path d="M5963 1780 c-24 -10 -43 -39 -43 -65 0 -10 -11 -26 -25 -37 -47 -37
-18 -108 44 -108 30 0 76 43 66 60 -3 5 4 11 15 15 26 8 53 60 45 85 -7 22
-52 60 -69 59 -6 0 -21 -4 -33 -9z"/>
<path d="M6612 1748 c-30 -30 0 -75 43 -64 19 5 25 13 25 35 0 38 -41 56 -68
29z"/>
<path d="M6730 1711 c-15 -29 -13 -39 14 -56 31 -21 66 -5 66 28 0 46 -59 66
-80 28z"/>
<path d="M937 1685 c-29 -42 -35 -69 -15 -63 19 7 50 65 46 85 -3 14 -10 9
-31 -22z"/>
<path d="M6071 1686 c-16 -19 -6 -36 20 -36 15 0 20 6 17 22 -4 27 -21 33 -37
14z"/>
<path d="M5641 1634 c-12 -15 -21 -32 -21 -39 0 -23 41 -65 64 -65 38 0 66 28
66 65 0 62 -71 87 -109 39z"/>
<path d="M6678 1625 c-11 -24 -10 -29 7 -41 24 -18 39 -18 55 0 20 26 8 61
-22 64 -22 3 -30 -2 -40 -23z"/>
<path d="M6846 1554 c-19 -18 -21 -45 -5 -61 8 -8 8 -17 0 -31 -15 -27 -14
-85 1 -100 35 -35 120 11 134 70 6 28 2 36 -25 58 -17 15 -31 31 -31 38 0 15
-29 42 -45 42 -7 0 -21 -7 -29 -16z"/>
<path d="M2003 1453 c-17 -6 -17 -28 0 -41 17 -14 40 1 35 23 -3 20 -16 26
-35 18z"/>
<path d="M5560 1432 c-22 -11 -35 -24 -35 -37 0 -24 59 -65 95 -65 55 0 101
75 68 108 -18 18 -88 15 -128 -6z"/>
<path d="M922 1374 c-30 -21 -29 -59 4 -81 24 -15 29 -15 53 -2 35 20 40 62 9
83 -28 20 -38 20 -66 0z"/>
<path d="M5708 1349 c-12 -7 -18 -22 -18 -49 0 -47 33 -76 75 -66 20 5 25 3
25 -13 0 -33 11 -51 41 -67 55 -28 109 8 109 72 0 54 -62 90 -109 64 -15 -8
-17 -6 -14 14 8 43 -63 72 -109 45z"/>
<path d="M2948 1333 c-10 -12 -15 -41 -16 -87 -1 -66 1 -71 33 -103 18 -18 43
-33 56 -33 21 0 22 -1 5 -13 -11 -8 -17 -23 -14 -38 2 -19 9 -24 32 -24 39 0
56 27 33 53 -17 19 -17 20 2 25 26 6 61 64 61 100 0 26 -30 67 -50 67 -5 0
-10 6 -10 14 0 23 -50 56 -85 56 -18 0 -38 -8 -47 -17z"/>
<path d="M5530 1290 c-49 -12 -80 -51 -80 -103 1 -97 109 -143 182 -78 28 25
33 36 33 75 0 38 -5 51 -30 75 -36 35 -59 41 -105 31z"/>
<path d="M2223 1283 c-21 -8 -15 -41 8 -48 25 -8 42 6 37 31 -3 19 -23 27 -45
17z"/>
<path d="M1502 1068 c-21 -21 -14 -57 14 -70 31 -14 57 -1 62 31 7 42 -46 69
-76 39z"/>
<path d="M2763 1050 c-46 -19 -36 -90 13 -90 60 0 83 41 44 80 -22 22 -25 23
-57 10z"/>
<path d="M1360 1030 c-24 -24 -25 -43 -4 -64 32 -32 84 -11 84 34 0 19 -7 33
-19 40 -28 14 -38 13 -61 -10z"/>
<path d="M5330 1017 c0 -19 21 -37 42 -37 24 0 35 29 17 41 -21 13 -59 11 -59
-4z"/>
<path d="M3949 1005 c-18 -10 -32 -32 -47 -77 -20 -56 -20 -64 -7 -85 9 -13
20 -23 26 -23 6 0 8 -9 4 -19 -8 -26 18 -87 43 -100 12 -6 39 -11 60 -11 51 0
92 43 92 97 0 38 -44 93 -75 93 -15 0 -15 2 -1 22 23 32 20 65 -9 93 -27 28
-48 31 -86 10z"/>
<path d="M1428 949 c-36 -21 -16 -79 27 -79 43 0 59 44 27 73 -21 19 -30 20
-54 6z"/>
<path d="M3730 910 c0 -5 16 -10 35 -10 19 0 35 5 35 10 0 6 -16 10 -35 10
-19 0 -35 -4 -35 -10z"/>
<path d="M4696 874 c-9 -8 -16 -19 -16 -24 0 -13 30 -40 44 -40 17 0 46 33 46
52 0 29 -49 37 -74 12z"/>
<path d="M1236 844 c-9 -8 -16 -23 -16 -33 0 -9 -13 -25 -29 -34 -40 -23 -46
-50 -24 -94 24 -50 74 -79 115 -67 40 12 48 37 32 99 -7 31 -9 54 -3 59 13 14
11 60 -3 74 -17 17 -54 15 -72 -4z"/>
<path d="M3221 784 c-27 -34 -26 -60 2 -101 40 -60 111 -77 151 -37 34 34 10
108 -47 143 -47 29 -81 27 -106 -5z"/>
<path d="M3720 779 c-48 -28 -60 -47 -60 -89 0 -46 21 -76 66 -90 41 -14 86 0
109 34 19 27 19 99 0 136 -19 37 -63 40 -115 9z"/>
<path d="M3140 660 c-23 -43 17 -88 63 -71 13 5 27 17 31 26 19 50 -69 91 -94
45z"/>
<path d="M4092 648 c-32 -32 8 -80 48 -58 34 18 19 70 -20 70 -9 0 -21 -5 -28
-12z"/>
<path d="M4586 624 c-21 -20 -20 -27 3 -48 36 -33 83 18 49 52 -16 16 -33 15
-52 -4z"/>
<path d="M3240 580 c-11 -11 -20 -24 -20 -30 0 -16 38 -50 56 -50 32 0 54 20
54 50 0 48 -54 66 -90 30z"/>
<path d="M3826 549 c-11 -16 -12 -27 -5 -41 20 -38 74 -12 67 34 -4 32 -41 36
-62 7z"/>
<path d="M3543 459 c-26 -9 -55 -61 -47 -83 15 -38 79 -23 104 24 20 38 -15
75 -57 59z"/>
<path d="M3845 395 c-14 -13 -25 -33 -25 -45 0 -56 96 -93 133 -52 24 27 21
74 -6 100 -31 29 -72 28 -102 -3z"/>
<path d="M3652 334 c-38 -26 -23 -74 23 -74 23 0 55 28 55 48 0 10 -38 42 -50
42 -3 0 -16 -7 -28 -16z"/>
<path d="M3802 257 c-46 -48 -17 -117 49 -117 59 0 81 81 33 119 -34 27 -55
26 -82 -2z"/>
<path d="M3258 229 c-27 -15 -22 -56 7 -75 55 -36 106 33 53 70 -26 18 -36 19
-60 5z"/>
<path d="M3432 117 c-28 -30 -28 -68 1 -95 30 -28 68 -28 95 1 29 30 28 62 -3
92 -30 31 -65 32 -93 2z"/>
</g>
</svg>
