<?xml version="1.0" standalone="no"?>
<!DOCTYPE svg PUBLIC "-//W3C//DTD SVG 20010904//EN"
 "http://www.w3.org/TR/2001/REC-SVG-20010904/DTD/svg10.dtd">
<svg version="1.0" xmlns="http://www.w3.org/2000/svg"
 width="1115.000000pt" height="1113.000000pt" viewBox="0 0 1115.000000 1113.000000"
 preserveAspectRatio="xMidYMid meet">
<metadata>
Created by potrace 1.16, written by Peter Selinger 2001-2019
</metadata>
<g transform="translate(0.000000,1113.000000) scale(0.100000,-0.100000)"
fill="#159646" stroke="none">
<path d="M5845 11120 c-11 -5 -31 -9 -45 -9 -14 -1 -31 -10 -38 -22 -19 -30
-11 -32 33 -9 22 11 46 20 55 20 9 0 25 7 36 15 19 14 19 14 -1 14 -11 0 -29
-4 -40 -9z"/>
<path d="M5602 11112 c-61 -4 -66 -22 -10 -36 30 -7 40 -6 62 11 31 25 21 29
-52 25z"/>
<path d="M5970 11063 c0 -5 61 -18 135 -29 74 -11 135 -16 135 -12 0 4 -24 14
-52 23 -63 20 -218 32 -218 18z"/>
<path d="M6270 11021 c-19 -6 -3 -11 75 -25 55 -10 151 -28 213 -41 61 -12
112 -19 112 -14 0 15 -56 38 -121 48 -35 6 -91 16 -124 22 -91 16 -128 19
-155 10z"/>
<path d="M6730 10971 c0 -11 -2 -26 -5 -33 -5 -11 14 -17 83 -26 49 -7 108
-12 131 -12 23 0 52 -6 64 -14 14 -8 85 -17 198 -24 186 -12 392 -46 524 -86
133 -39 226 -82 417 -193 101 -59 221 -123 268 -143 81 -36 85 -39 88 -72 3
-29 8 -36 38 -47 19 -7 68 -43 108 -81 93 -86 131 -111 230 -150 43 -17 97
-44 120 -60 53 -36 139 -128 236 -250 l74 -95 -79 70 c-43 39 -90 86 -104 106
-15 19 -32 34 -38 32 -6 -2 -25 3 -42 12 -17 8 -31 13 -31 9 0 -14 94 -109
106 -106 7 1 18 -7 24 -18 13 -25 2 -26 -17 -2 -12 15 -13 14 -7 -13 l5 -30
-25 30 c-14 17 -26 33 -26 38 0 4 -5 7 -11 7 -22 0 29 -65 86 -109 100 -77
157 -134 144 -142 -13 -8 26 -50 92 -100 19 -15 35 -35 36 -45 2 -29 8 -53 16
-60 4 -4 7 -13 7 -21 0 -11 -5 -11 -27 1 -16 8 -60 24 -100 36 -54 16 -74 27
-79 43 -6 20 -7 20 -21 2 -13 -19 -14 -19 -19 3 -4 12 -10 22 -15 22 -5 0 -6
-7 -2 -16 4 -12 2 -15 -8 -12 -8 3 -13 11 -11 17 3 15 -47 121 -57 121 -4 0
-6 -15 -3 -32 l4 -33 -21 23 c-31 32 -88 31 -103 -3 -13 -29 -16 -30 -46 -9
-14 9 -22 26 -22 43 0 15 -5 42 -11 60 -10 29 -14 31 -43 25 -28 -5 -37 -1
-59 26 -23 27 -27 29 -27 12 0 -12 13 -29 33 -41 17 -11 38 -30 46 -43 11 -17
6 -15 -25 10 -22 18 -66 53 -99 78 -33 25 -61 50 -63 55 -2 5 -10 9 -17 9 -23
0 -112 45 -149 76 -20 16 -64 53 -99 83 -95 82 -271 212 -378 279 -422 265
-841 420 -1399 515 -47 8 -121 28 -165 45 -83 31 -238 62 -310 62 -27 0 -61
10 -98 30 -30 17 -86 37 -124 45 -82 18 -313 20 -501 4 -92 -7 -154 -7 -207 0
-71 10 -76 10 -111 -14 -20 -14 -55 -30 -78 -37 -54 -15 -246 -15 -319 1 -55
12 -60 11 -80 -7 -35 -32 -72 -42 -164 -42 -75 0 -84 2 -73 15 11 13 9 15 -13
15 -13 0 -30 -7 -37 -15 -17 -20 -28 -19 -89 11 l-53 27 -55 -23 c-59 -24 -70
-23 -54 8 18 33 91 56 155 48 52 -7 54 -6 49 13 -6 23 15 29 34 10 8 -8 24 -7
59 5 54 18 84 20 84 6 0 -5 -6 -10 -14 -10 -7 0 -19 -7 -26 -14 -8 -11 10 -8
67 10 43 13 88 27 100 30 50 13 6 24 -100 24 -436 0 -934 -148 -1435 -426 -86
-48 -181 -102 -210 -120 -29 -19 -65 -34 -80 -34 -52 -1 -150 -54 -235 -126
-105 -91 -138 -138 -145 -207 l-5 -52 34 26 c204 156 365 263 530 352 72 40
95 47 140 47 53 0 119 -24 126 -45 4 -12 -111 -78 -334 -189 -214 -107 -339
-189 -423 -276 -68 -71 -143 -128 -322 -248 -206 -138 -360 -283 -617 -582
-73 -85 -156 -174 -184 -197 -51 -42 -76 -75 -77 -102 0 -9 14 -1 36 20 50 47
208 231 239 277 14 21 55 63 93 94 37 30 145 125 240 211 123 109 205 174 282
221 60 37 183 119 272 183 238 170 369 254 493 317 97 50 115 55 151 50 31 -4
54 0 90 15 l47 21 24 -21 c16 -16 35 -22 65 -21 70 1 120 28 88 47 -5 3 -10
10 -10 16 0 14 93 10 113 -6 18 -13 16 -15 -22 -34 -22 -12 -47 -21 -56 -21
-9 0 -13 -4 -10 -10 3 -5 26 -10 50 -10 24 0 56 -5 72 -11 33 -13 41 -6 -107
-101 -52 -33 -173 -122 -269 -196 -96 -75 -219 -166 -274 -203 l-100 -68 -80
6 c-66 5 -79 4 -75 -8 3 -10 25 -15 71 -17 39 -2 67 -7 67 -14 0 -5 -32 -44
-71 -86 -56 -60 -81 -79 -122 -93 -31 -10 -60 -29 -72 -44 -11 -15 -36 -43
-56 -64 -121 -124 -163 -150 -251 -151 -44 0 -48 -2 -70 -42 -22 -39 -27 -43
-63 -43 -37 0 -41 -3 -66 -49 -30 -55 -43 -66 -81 -66 -33 0 -123 -75 -152
-127 -22 -39 -66 -59 -66 -29 0 8 4 18 10 21 13 8 13 25 0 25 -5 0 -10 -7 -10
-15 0 -8 -7 -15 -15 -15 -8 0 -15 -7 -15 -15 0 -8 5 -15 10 -15 26 0 5 -22
-45 -46 -32 -14 -93 -60 -141 -105 -57 -53 -107 -89 -149 -108 -69 -32 -95
-60 -95 -106 0 -24 -12 -42 -53 -83 -29 -29 -57 -52 -63 -52 -6 0 -19 9 -29
20 -14 16 -16 23 -7 32 17 17 15 58 -2 58 -29 0 -66 -64 -66 -112 0 -35 -5
-49 -28 -70 -34 -32 -65 -48 -92 -48 -19 0 -21 -4 -16 -25 10 -38 -16 -86 -68
-129 l-47 -38 7 28 c11 44 53 144 82 194 14 25 55 95 90 155 36 61 84 150 108
198 24 49 54 97 68 108 14 11 26 27 26 34 0 8 14 30 31 49 29 34 30 36 14 65
-19 37 -48 40 -70 9 -28 -40 -117 -202 -128 -233 -6 -16 -41 -66 -78 -110 -36
-44 -88 -113 -114 -154 -57 -87 -151 -284 -190 -396 -34 -97 -40 -105 -61 -79
-17 21 -15 13 5 -27 22 -44 -1 -104 -48 -129 -44 -22 -61 -58 -61 -130 0 -56
-9 -68 -80 -113 -74 -47 -87 -63 -72 -88 14 -22 11 -29 -38 -82 -19 -21 -52
-56 -73 -79 -39 -43 -44 -57 -26 -75 9 -9 9 -20 0 -44 -6 -17 -11 -55 -11 -83
0 -32 -8 -67 -20 -91 -14 -27 -18 -50 -14 -71 3 -19 -3 -65 -15 -113 -12 -44
-21 -98 -21 -120 0 -33 -5 -44 -28 -61 -27 -20 -29 -25 -27 -93 1 -40 7 -85
14 -100 6 -16 11 -79 11 -140 0 -90 -4 -119 -18 -147 -23 -42 -19 -56 19 -75
l29 -16 0 -131 c0 -93 5 -149 17 -191 13 -47 14 -66 5 -90 -9 -23 -8 -35 3
-58 11 -21 13 -47 9 -102 -6 -69 -5 -79 22 -132 16 -32 46 -76 67 -99 21 -23
40 -52 43 -66 2 -14 9 -43 14 -65 6 -22 15 -68 20 -102 19 -120 74 -233 113
-233 13 0 37 -15 58 -36 18 -20 63 -51 99 -69 63 -32 66 -35 87 -95 21 -58 21
-63 6 -86 -15 -23 -14 -29 10 -92 15 -37 32 -89 38 -115 9 -35 19 -52 35 -59
13 -6 24 -14 24 -17 0 -12 -29 -102 -38 -118 -13 -22 25 -103 48 -103 9 0 43
24 75 53 58 52 58 53 47 86 -14 40 -16 177 -3 186 5 3 13 -4 16 -16 4 -11 20
-36 36 -54 25 -28 28 -38 20 -54 -10 -17 -7 -22 22 -36 39 -18 53 -40 102
-165 21 -52 57 -134 81 -182 24 -48 44 -99 44 -113 0 -40 24 -87 63 -122 36
-34 55 -92 43 -130 -6 -19 8 -48 59 -126 17 -25 38 -60 48 -79 l19 -33 16 30
16 30 8 -59 c7 -56 4 -80 -23 -172 -11 -36 -10 -46 13 -95 35 -77 80 -124 135
-143 70 -24 83 -40 83 -103 0 -59 21 -120 44 -129 8 -3 17 -23 21 -44 9 -55
44 -95 225 -254 8 -7 37 -39 63 -72 27 -32 72 -75 100 -94 29 -19 56 -45 62
-57 13 -29 21 -29 38 2 l13 25 34 -25 c19 -14 36 -25 38 -25 2 0 -10 19 -27
42 -17 23 -31 49 -31 58 0 9 -16 24 -35 33 -20 9 -40 28 -45 42 -5 14 -27 44
-48 67 -21 24 -57 68 -81 98 -38 49 -42 59 -38 95 3 22 18 69 35 104 l29 64
14 -29 c10 -21 25 -32 52 -38 35 -9 37 -12 32 -37 -5 -23 -3 -28 16 -31 29 -4
37 -28 10 -28 -12 0 -21 -3 -22 -7 -2 -24 -9 -73 -14 -103 -7 -46 7 -69 30
-50 9 8 25 31 36 52 29 57 58 72 124 63 50 -6 55 -9 50 -26 -4 -13 0 -28 10
-39 9 -10 15 -27 13 -37 -3 -13 -9 -8 -24 22 -11 23 -27 41 -39 43 -19 3 -19
2 -2 -8 14 -9 16 -15 7 -25 -9 -11 -6 -19 16 -39 l28 -24 -28 -85 c-25 -75
-27 -89 -16 -121 6 -20 25 -45 41 -57 16 -11 36 -33 44 -49 18 -35 21 -170 4
-170 -8 0 -7 -6 2 -17 48 -57 -131 79 -284 216 -110 99 -181 159 -251 213
l-29 22 6 -25 c4 -15 27 -62 52 -105 25 -43 45 -84 45 -91 0 -6 15 -30 34 -52
19 -23 38 -50 41 -61 3 -10 14 -22 24 -25 11 -3 24 -18 30 -34 7 -15 50 -65
96 -111 47 -47 85 -90 85 -97 0 -6 17 -17 38 -24 20 -6 54 -20 75 -31 l39 -19
-4 22 c-2 16 -13 25 -37 31 -18 5 -31 12 -27 15 12 12 -15 43 -37 41 -23 -2
-117 56 -117 72 0 20 22 20 50 0 17 -12 38 -19 47 -16 22 7 36 -2 51 -31 8
-15 18 -20 32 -16 13 3 39 -6 69 -25 47 -29 125 -52 177 -52 14 0 54 -20 88
-45 35 -25 68 -45 74 -45 11 0 22 34 22 73 0 42 -72 115 -122 123 -36 6 -77
42 -82 70 0 5 -10 18 -21 30 -50 54 -51 67 -16 159 18 47 29 89 26 95 -3 5
-19 7 -34 4 -25 -5 -33 0 -65 41 -20 27 -36 54 -36 61 0 24 17 23 40 -1 13
-14 31 -25 40 -25 9 0 32 -17 51 -38 45 -51 187 -155 199 -147 12 7 120 -43
120 -55 0 -12 38 -22 52 -14 12 7 -164 103 -192 103 -8 1 -21 10 -28 21 -7 11
-37 36 -67 55 -59 38 -70 50 -55 60 6 4 4 15 -6 30 -20 30 -12 55 16 55 30 0
70 -29 70 -51 0 -25 38 -49 77 -49 18 0 33 -4 33 -10 0 -5 8 -10 18 -10 10 0
66 -23 123 -50 93 -45 100 -47 69 -20 -32 27 -33 29 -12 30 14 0 22 6 22 16 0
14 -8 16 -44 12 -45 -5 -81 6 -71 23 11 17 95 10 122 -11 25 -19 83 -28 83
-12 0 4 32 5 71 2 54 -4 74 -10 85 -25 8 -10 14 -24 14 -29 1 -6 14 -27 30
-46 l30 -34 -22 -13 c-13 -7 -31 -12 -42 -13 -15 0 -16 -3 -6 -15 10 -13 9
-15 -8 -15 -12 0 -24 -5 -27 -10 -3 -6 0 -10 8 -10 8 0 38 -15 66 -34 31 -21
58 -32 70 -29 11 3 30 -2 43 -11 19 -14 20 -16 5 -16 -10 0 -26 4 -35 8 -20
10 -73 0 -56 -11 7 -4 40 -11 75 -16 64 -9 119 -28 119 -41 0 -4 -23 -1 -52 6
-102 27 -138 17 -138 -36 0 -23 26 -46 32 -29 2 7 10 9 17 5 7 -5 10 -14 7
-21 -3 -8 12 -24 34 -39 37 -24 281 -137 329 -151 36 -11 17 9 -28 30 -41 18
-62 45 -35 45 8 0 24 -5 36 -11 11 -6 22 -8 25 -5 4 3 -10 13 -30 21 -38 16
-49 35 -22 35 9 0 36 -21 60 -46 43 -43 45 -44 45 -21 0 19 -10 31 -42 49 -82
46 -55 61 56 31 51 -13 67 -22 84 -50 24 -35 37 -39 75 -22 30 14 68 -4 147
-69 30 -25 78 -56 105 -69 l50 -24 -65 4 c-36 3 -96 10 -135 16 -38 7 -81 13
-95 15 -14 2 -45 13 -70 24 -25 12 -58 21 -75 20 -16 0 -106 23 -200 51 -93
29 -203 57 -243 63 -53 8 -80 17 -96 33 -12 12 -40 25 -61 29 -52 10 -128 49
-193 99 -30 22 -62 41 -72 42 -17 1 -101 68 -108 87 -2 4 -11 8 -19 8 -9 0
-47 32 -85 71 -42 43 -76 69 -86 67 -28 -5 -24 -32 8 -50 16 -9 44 -37 62 -62
21 -31 39 -46 53 -46 12 0 40 -13 61 -30 21 -16 56 -42 76 -57 21 -16 39 -40
42 -55 5 -26 26 -40 26 -18 0 20 48 9 95 -22 45 -30 47 -32 26 -41 -21 -10
-29 -27 -11 -27 5 0 7 -6 4 -14 -7 -18 12 -29 46 -28 18 0 30 -5 33 -16 2 -9
22 -26 43 -37 22 -11 55 -29 74 -40 19 -12 43 -19 53 -17 10 2 16 -2 15 -9 -6
-24 582 -201 718 -217 102 -12 174 -41 174 -71 0 -51 673 -149 855 -124 85 12
293 9 307 -5 11 -11 -40 -32 -78 -32 -32 0 -54 -10 -54 -25 0 -6 -9 -20 -20
-30 -16 -14 -49 -19 -211 -26 -106 -5 -197 -5 -203 -1 -6 4 -38 9 -71 13 -33
3 -81 12 -107 19 -39 11 -55 11 -103 0 -55 -13 -58 -13 -111 14 -39 20 -64 27
-85 22 -16 -3 -29 -1 -29 4 0 6 -18 7 -43 4 -32 -5 -46 -2 -56 10 -10 12 -32
16 -87 16 -43 0 -74 4 -74 10 0 6 5 10 11 10 5 0 7 5 4 10 -4 7 -12 7 -25 0
-28 -15 -51 -12 -95 10 -22 11 -50 20 -62 20 -13 0 -26 6 -29 14 -3 9 -29 16
-70 21 -36 4 -103 17 -149 29 -46 13 -86 19 -87 15 -3 -8 -149 31 -158 42 -3
3 -43 18 -90 34 -47 15 -120 45 -163 67 -48 24 -86 37 -97 33 -11 -3 -30 1
-44 10 -14 9 -30 14 -36 10 -5 -3 -14 4 -18 15 -7 18 -17 23 -51 24 -29 2 -48
9 -57 21 -14 19 -9 39 7 30 5 -4 9 -2 9 3 0 13 -44 24 -63 16 -33 -12 -26 -34
20 -68 26 -19 53 -32 60 -29 16 6 123 -45 123 -59 0 -5 -7 -7 -16 -4 -9 3 -23
6 -33 6 -9 0 -52 20 -96 45 -44 25 -81 41 -83 35 -2 -5 -12 -10 -21 -10 -10 0
-21 -3 -24 -6 -11 -11 241 -125 281 -128 25 -2 54 -15 86 -40 32 -24 51 -33
56 -26 5 7 11 6 21 -6 7 -9 36 -27 64 -39 47 -22 48 -23 20 -25 l-30 -1 35
-19 c19 -11 47 -19 63 -20 15 0 27 -4 27 -10 0 -5 12 -13 28 -16 15 -4 87 -31
160 -60 73 -30 160 -61 194 -69 34 -8 64 -18 67 -24 3 -5 32 -14 63 -20 31 -5
109 -26 173 -46 65 -19 129 -35 143 -35 19 0 23 -3 15 -11 -9 -9 -20 -9 -44 0
-37 13 -42 11 -29 -9 6 -10 26 -15 57 -15 26 1 50 -3 53 -7 3 -4 32 0 65 8 56
15 61 15 124 -7 57 -20 87 -23 228 -23 105 -1 166 -5 173 -12 8 -8 2 -13 -22
-19 -22 -5 -27 -9 -15 -12 9 -2 17 -13 17 -24 0 -14 7 -19 28 -20 15 0 36 -4
47 -9 35 -15 -195 -11 -265 5 -106 23 -365 68 -465 80 -27 4 -60 13 -72 21
-12 8 -30 14 -40 14 -10 0 -88 24 -174 54 -165 57 -239 75 -239 58 0 -5 12
-13 26 -16 15 -4 24 -9 21 -12 -8 -8 -146 37 -155 50 -4 6 -7 15 -7 20 0 7
-64 29 -102 36 -10 1 -1 -19 10 -23 6 -2 1 -2 -13 0 -32 5 -150 62 -150 72 0
5 -28 19 -62 31 -107 38 -303 135 -393 194 -47 30 -85 52 -85 48 -1 -4 -8 5
-16 20 -16 31 -32 36 -40 14 -8 -20 -50 -4 -76 29 -11 14 -26 25 -34 25 -29 0
-102 50 -108 74 -4 16 -23 32 -62 50 -82 39 -145 85 -364 264 -107 88 -197
158 -200 155 -3 -3 18 -23 45 -46 28 -23 70 -62 95 -86 24 -25 71 -63 103 -84
33 -21 89 -62 126 -91 36 -30 104 -79 151 -111 78 -52 111 -87 98 -100 -3 -3
-17 -1 -32 5 -53 20 -15 -9 66 -52 44 -23 94 -53 110 -66 41 -35 98 -62 129
-62 39 0 146 -36 209 -71 30 -16 47 -28 38 -25 -10 4 -26 9 -35 12 -10 3 -1
-4 20 -16 44 -25 50 -47 6 -25 -43 23 -49 11 -8 -14 49 -29 59 -39 53 -56 -4
-8 -2 -15 4 -15 6 0 12 6 15 13 3 9 9 9 23 1 25 -15 29 -34 7 -34 -33 0 -33
-11 -4 -41 37 -37 121 -81 140 -74 8 3 17 1 20 -4 3 -5 56 -33 116 -62 61 -29
114 -55 119 -57 5 -3 6 0 2 7 -15 24 35 10 67 -19 35 -30 57 -38 57 -20 0 14
18 13 79 -6 37 -11 51 -19 47 -29 -3 -10 7 -16 37 -20 23 -4 47 -6 52 -5 24 5
33 -1 28 -20 -6 -21 20 -29 32 -10 3 5 30 -3 62 -20 32 -16 61 -27 65 -24 4 3
32 -3 63 -11 41 -12 59 -14 69 -6 10 8 36 6 97 -8 46 -11 172 -32 279 -45 107
-14 212 -29 233 -32 22 -4 37 -3 37 3 0 7 16 7 44 2 24 -4 74 -8 112 -8 38 0
93 -4 123 -10 29 -6 56 -11 58 -11 2 0 1 -4 -2 -10 -3 -5 -21 -10 -39 -10 -18
0 -41 -7 -52 -15 -18 -14 -18 -14 6 -15 14 0 54 9 88 20 35 11 84 20 109 20
36 0 43 3 35 13 -9 10 -2 13 36 11 26 -1 58 -6 72 -12 29 -11 289 1 335 16 17
6 84 13 150 16 133 5 291 31 466 77 66 17 137 29 165 28 63 -2 170 19 185 37
10 12 8 13 -7 8 -13 -5 -16 -4 -9 3 19 19 77 34 90 23 9 -8 23 -4 50 15 27 18
51 25 85 25 63 0 115 11 100 20 -17 10 83 43 112 37 20 -4 19 -4 -4 -6 -28 -1
-38 -16 -17 -23 6 -2 61 21 123 52 61 31 161 73 222 93 69 24 119 47 131 61
12 14 37 26 63 30 24 4 95 33 159 66 64 32 126 62 139 65 31 9 28 -9 -4 -24
-15 -6 -24 -14 -21 -18 3 -3 21 4 40 16 36 22 62 28 52 11 -11 -19 4 -10 81
45 60 43 84 55 109 53 30 -2 32 -4 24 -26 -16 -42 -10 -45 29 -10 21 19 81 57
132 84 55 29 115 69 145 98 27 27 55 50 61 50 6 1 23 15 37 32 19 23 33 30 49
27 16 -3 32 5 53 28 l30 31 -33 -16 c-61 -31 -64 -12 -4 35 68 54 109 78 97
57 -5 -7 -15 -21 -24 -31 -13 -16 -13 -19 -1 -27 23 -15 41 -12 47 8 2 11 26
28 54 39 98 42 219 148 147 130 -19 -5 -18 -3 7 17 26 21 31 22 41 8 14 -19
34 -8 34 19 0 11 7 19 16 19 23 0 76 31 98 58 10 13 24 21 31 18 13 -5 65 63
65 84 0 15 20 12 20 -2 1 -8 8 -4 18 8 10 11 29 28 44 38 15 10 30 31 33 47 6
26 15 34 37 30 16 -2 70 79 94 141 14 36 31 71 38 77 7 6 11 22 9 34 -4 17 4
31 26 49 17 15 36 29 43 32 10 4 10 7 1 12 -7 3 6 22 33 50 42 42 63 56 49 34
-14 -23 14 -8 30 17 16 23 16 25 1 20 -9 -4 -16 -3 -16 1 0 15 31 52 44 52 6
0 22 21 35 47 13 27 45 78 72 114 27 37 56 83 65 104 8 21 24 40 35 42 15 4
17 8 8 13 -9 6 -1 21 29 55 23 26 39 51 36 56 -2 5 5 14 16 21 25 15 60 78 60
107 0 11 8 28 19 38 23 22 44 63 37 70 -5 5 31 83 38 83 2 0 2 -10 -2 -22 -3
-14 -2 -19 6 -14 22 13 24 -22 3 -62 -11 -22 -17 -48 -14 -60 7 -27 23 -18 23
12 0 20 31 61 34 46 1 -2 15 6 32 19 45 33 164 268 144 281 -13 8 -13 12 -1
32 45 71 66 120 119 281 50 148 57 179 45 186 -22 12 -11 46 14 45 17 0 23 7
28 35 4 20 30 86 58 146 43 92 51 118 49 160 -1 28 10 96 23 151 14 56 25 117
24 135 0 27 -4 19 -18 -34 -23 -89 -41 -108 -41 -44 0 55 26 127 46 127 8 0
14 9 14 20 0 10 9 42 20 70 11 28 18 56 15 61 -3 4 3 21 15 37 37 49 90 405
97 650 3 96 9 162 15 162 10 0 4 176 -12 344 -6 60 -5 105 2 140 17 79 28 77
28 -3 0 -41 5 -91 12 -113 7 -24 8 -42 2 -46 -10 -8 -2 -391 9 -409 4 -6 3
-14 -3 -18 -13 -8 -13 -88 -1 -100 6 -6 5 -35 -4 -75 -33 -161 -67 -550 -47
-550 11 0 46 175 37 189 -3 5 0 13 5 16 7 4 8 19 5 37 -4 17 -3 33 3 37 5 3
17 67 26 141 66 540 39 1297 -64 1770 -25 115 -38 160 -55 180 -7 8 -15 39
-19 69 -4 30 -13 69 -21 88 -8 18 -10 33 -5 33 8 0 2 99 -7 110 -2 2 -8 -1
-12 -8 -8 -14 -41 116 -41 165 0 17 -18 69 -40 114 -22 46 -40 90 -40 98 -1 9
-9 34 -20 56 -11 22 -19 47 -20 56 0 18 -20 38 -35 36 -5 -1 -20 27 -31 63
-12 36 -26 64 -32 63 -5 -1 -13 13 -16 32 -4 19 -12 35 -18 35 -12 0 -3 -43
17 -80 34 -61 64 -127 70 -155 l6 -30 -20 24 c-12 13 -21 32 -21 42 0 10 -4
19 -10 19 -16 0 -12 -46 6 -60 8 -8 20 -23 26 -34 11 -20 10 -20 -16 -3 -29
19 -37 6 -8 -15 27 -19 37 -39 16 -31 -13 5 -16 3 -11 -10 7 -19 -8 -33 -19
-16 -4 7 -11 26 -15 43 -7 25 -8 22 -5 -17 3 -44 1 -49 -25 -62 -26 -14 -28
-14 -35 8 -3 12 -15 42 -26 65 -11 24 -18 56 -16 72 1 15 -2 34 -8 41 -32 39
-74 152 -74 197 0 13 -12 33 -27 46 -14 12 -27 32 -28 43 0 11 -9 28 -18 37
-9 10 -17 25 -17 35 0 10 -12 28 -26 42 -14 13 -47 70 -74 126 -60 128 -139
262 -222 378 -36 50 -82 120 -102 158 -21 37 -44 67 -51 67 -8 0 -23 19 -33
43 -11 23 -37 62 -58 86 -31 35 -84 127 -88 151 -1 3 -48 58 -106 123 -63 72
-142 177 -199 265 -128 200 -191 283 -280 373 -91 91 -212 173 -241 164 -15
-5 -33 5 -66 34 -66 58 -191 142 -424 283 -113 69 -248 155 -300 192 -128 91
-201 131 -306 167 -167 56 -316 70 -426 39 -20 -6 -48 -4 -86 5 -31 8 -88 15
-127 15 -100 0 -202 17 -250 41 -34 17 -46 19 -63 10 -32 -17 -70 -13 -92 9
-19 19 -20 19 -20 1z m-1847 -948 c-7 -2 -21 -2 -30 0 -10 3 -4 5 12 5 17 0
24 -2 18 -5z m-173 -33 c0 -7 6 -7 19 0 23 12 71 13 71 2 0 -4 -14 -16 -31
-26 -28 -16 -32 -17 -48 -2 -14 13 -24 14 -49 5 -35 -12 -63 -9 -63 6 0 6 10
13 23 17 37 10 78 9 78 -2z m-237 -37 c-7 -2 -21 -2 -30 0 -10 3 -4 5 12 5 17
0 24 -2 18 -5z m-63 -18 c-8 -9 -30 -15 -57 -15 -24 0 -57 -7 -74 -15 -20 -11
-35 -13 -46 -6 -14 7 -10 11 22 19 22 6 56 15 75 20 19 6 48 11 64 11 24 1 27
-1 16 -14z m4935 -297 l40 -42 -42 33 c-45 34 -60 51 -46 51 5 0 27 -19 48
-42z m-205 -184 c0 -19 -16 -10 -31 17 -10 19 -9 20 10 9 12 -6 21 -18 21 -26z
m375 -144 c10 -11 13 -20 7 -20 -6 0 -16 9 -22 20 -6 11 -9 20 -7 20 2 0 12
-9 22 -20z m627 -1027 c8 -10 22 -30 31 -45 16 -25 16 -28 1 -28 -24 0 -75 56
-68 74 8 21 17 20 36 -1z m292 -243 c-6 -5 -24 21 -24 34 0 6 6 1 14 -10 8
-10 12 -21 10 -24z m295 -486 c12 -15 21 -32 21 -39 0 -7 7 -15 15 -19 8 -3
15 -16 15 -28 -1 -20 -2 -21 -11 -5 -14 24 -33 22 -19 -2 15 -29 13 -31 -20
-31 -35 0 -48 20 -32 54 7 16 6 29 -4 47 -29 52 -2 70 35 23z m81 -75 c0 -11
-4 -17 -10 -14 -5 3 -10 13 -10 21 0 8 5 14 10 14 6 0 10 -9 10 -21z m47 -218
c5 -33 3 -41 -10 -41 -13 0 -16 10 -14 49 2 57 16 53 24 -8z m-17 -102 c0 -5
-4 -9 -10 -9 -5 0 -10 7 -10 16 0 8 5 12 10 9 6 -3 10 -10 10 -16z m20 -84 c0
-5 -5 -3 -10 5 -5 8 -10 20 -10 25 0 6 5 3 10 -5 5 -8 10 -19 10 -25z m30
-228 c0 -18 5 -38 11 -44 6 -6 9 -17 6 -25 -3 -9 -7 -7 -13 7 -4 11 -16 31
-26 44 -14 18 -15 27 -7 37 19 23 29 16 29 -19z m96 -375 c-10 -9 -15 2 -21
39 l-5 34 15 -34 c9 -18 14 -36 11 -39z m13 -80 c-1 -70 -18 -82 -18 -14 -1
40 3 61 9 57 6 -3 10 -23 9 -43z m25 -125 c5 -27 4 -37 -3 -32 -6 3 -11 22
-11 42 0 44 5 41 14 -10z m-206 -634 c-8 -10 -7 -17 6 -26 16 -12 16 -18 5
-58 l-12 -44 -7 35 c-16 77 -21 259 -8 282 11 20 13 12 20 -76 5 -69 4 -104
-4 -113z m22 -198 c0 -17 -2 -17 -10 -5 -5 8 -10 24 -10 35 0 17 2 17 10 5 5
-8 10 -24 10 -35z m-30 -55 c-5 -22 -8 -27 -9 -13 -1 21 9 56 14 51 2 -2 0
-19 -5 -38z m-3 -192 c-2 -13 -4 -3 -4 22 0 25 2 35 4 23 2 -13 2 -33 0 -45z
m-69 -364 c5 -37 -27 -174 -44 -195 -8 -9 -14 -41 -15 -75 -1 -32 -5 -70 -9
-84 l-8 -25 -2 25 c-5 53 -18 -33 -19 -126 -1 -72 -4 -93 -16 -98 -12 -4 -13
-9 -4 -24 8 -13 8 -32 -1 -75 -12 -60 -19 -70 -38 -58 -9 5 -9 16 0 45 9 27 9
39 1 44 -16 10 -21 68 -5 64 6 -1 12 7 12 17 0 26 61 275 69 281 12 10 7 50
-6 50 -14 0 -13 11 8 68 12 30 17 28 13 -5 -3 -16 7 4 21 42 14 39 24 79 22
90 -2 13 -7 6 -16 -24 -7 -23 -14 -41 -17 -39 -4 5 15 118 23 131 10 16 28 0
31 -29z m-143 -394 c-4 -12 -9 -19 -12 -17 -3 3 -2 15 2 27 4 12 9 19 12 17 3
-3 2 -15 -2 -27z m-14 -447 l-20 -38 -1 38 c0 26 4 37 15 37 8 0 15 6 16 13 0
9 2 9 5 0 3 -6 -4 -29 -15 -50z m172 9 c-11 -15 -29 -29 -39 -30 -15 -3 -11 4
15 32 39 41 55 40 24 -2z m-248 -99 c-9 -15 -13 -19 -10 -8 4 11 10 29 13 40
3 11 7 14 9 8 3 -7 -3 -24 -12 -40z m185 -24 c-7 -16 -16 -29 -20 -29 -8 0 6
65 18 85 12 20 14 -27 2 -56z m-179 -186 c-9 -16 -10 -16 -11 -1 0 9 3 25 7
35 7 16 8 17 11 1 2 -10 -1 -25 -7 -35z m-59 -201 c-18 -44 -42 -56 -42 -21 0
14 5 19 14 16 10 -4 18 5 25 25 6 17 13 29 16 26 3 -2 -3 -23 -13 -46z m-48
-144 c-28 -82 -40 -100 -54 -78 -6 10 -3 24 10 45 11 16 28 47 40 68 11 20 22
37 25 37 2 0 -7 -32 -21 -72z m2 -101 c-8 -12 -22 -50 -30 -85 -15 -66 -39
-112 -57 -112 -6 0 -8 8 -5 18 3 9 8 29 11 44 4 15 12 29 19 31 7 3 23 33 35
66 12 34 26 61 32 61 5 0 3 -10 -5 -23z m64 -51 l-23 -21 19 33 c10 18 20 28
23 21 2 -6 -7 -21 -19 -33z m-8900 -62 c0 -14 -12 -19 -23 -8 -9 9 4 35 14 28
5 -3 9 -12 9 -20z m8810 -99 c0 -8 -9 -19 -20 -25 -21 -11 -25 -4 -14 24 8 20
34 21 34 1z m-8675 -335 c0 -7 -6 -15 -12 -17 -8 -3 -13 4 -13 17 0 13 5 20
13 18 6 -3 12 -11 12 -18z m125 -90 c0 -5 -7 -10 -15 -10 -8 0 -15 5 -15 10 0
6 7 10 15 10 8 0 15 -4 15 -10z m100 -31 c0 -20 -21 -49 -35 -49 -18 0 -19 14
-5 41 11 20 40 26 40 8z m76 -74 c3 -8 -10 -40 -29 -72 -19 -32 -38 -68 -42
-80 -7 -25 -45 -32 -45 -9 0 24 28 92 54 135 27 42 52 53 62 26z m7815 -79
c-12 -18 -21 -39 -21 -46 0 -7 -20 -34 -43 -59 -24 -26 -46 -53 -49 -61 -2 -7
-9 -10 -15 -7 -8 5 15 43 63 107 75 100 104 130 65 66z m-231 -165 c0 -4 -11
-18 -25 -31 -21 -20 -25 -21 -25 -7 0 26 22 56 37 50 7 -3 13 -8 13 -12z m76
-69 c-8 -16 -37 -49 -63 -73 -30 -27 -55 -61 -66 -90 -9 -25 -33 -61 -52 -79
-43 -42 -45 -33 -5 22 18 24 30 52 28 65 -2 17 18 44 81 107 47 47 87 84 89
82 2 -2 -3 -17 -12 -34z m-197 -42 c-19 -16 -40 -29 -48 -30 -17 0 -17 -1 33
39 49 39 62 31 15 -9z m-6921 -82 c19 -19 14 -33 -5 -16 -10 9 -25 13 -33 11
-13 -4 -13 -3 0 6 19 14 23 14 38 -1z m6881 -124 c-12 -13 -24 -22 -27 -20 -7
8 32 54 41 49 5 -3 -2 -16 -14 -29z m116 -14 c-10 -11 -23 -20 -28 -20 -6 0
-18 -6 -27 -12 -9 -7 -1 2 19 20 37 35 65 44 36 12z m-309 -319 c-10 -16 -46
-20 -46 -5 0 8 10 14 26 14 14 0 23 -4 20 -9z m-6886 -141 c0 -5 -2 -10 -4
-10 -3 0 -8 5 -11 10 -3 6 -1 10 4 10 6 0 11 -4 11 -10z m6660 0 c0 -5 -7 -10
-15 -10 -8 0 -15 5 -15 10 0 6 7 10 15 10 8 0 15 -4 15 -10z m-50 -30 c11 -7
12 -12 3 -21 -13 -13 -33 -4 -33 17 0 16 9 18 30 4z m-432 -74 c-61 -58 -248
-190 -248 -176 0 5 30 30 66 57 36 26 103 76 147 110 45 34 84 62 87 62 3 0
-21 -24 -52 -53z m-4968 -82 c56 -14 122 -34 145 -44 23 -10 53 -16 67 -13 24
5 63 -12 187 -82 46 -26 81 -32 81 -15 0 13 66 13 130 -1 l50 -11 0 -44 0 -45
-47 7 c-81 11 -202 50 -338 108 -71 30 -170 66 -218 80 -95 28 -210 86 -168
86 4 0 54 -12 111 -26z m4946 0 c-15 -14 -31 -22 -35 -19 -7 8 36 45 53 45 6
0 -2 -12 -18 -26z m-56 -64 c-24 -15 -37 -11 -16 5 11 8 22 12 25 9 3 -3 -1
-9 -9 -14z m-4425 -25 c30 -8 40 -14 25 -14 -14 0 -38 6 -55 14 -39 17 -32 17
30 0z m4425 -90 c0 -8 -4 -15 -9 -15 -13 0 -22 16 -14 24 11 11 23 6 23 -9z
m-5240 -57 c0 -4 -13 -2 -30 3 -16 6 -30 15 -30 19 0 5 14 3 30 -3 17 -6 30
-15 30 -19z m4930 28 c0 -2 -12 -11 -27 -20 l-28 -17 24 20 c23 21 31 25 31
17z m-1615 -56 c-13 -21 -172 -61 -314 -79 -84 -11 -156 -23 -159 -26 -4 -3 0
-10 8 -15 12 -8 10 -10 -7 -10 -16 0 -21 4 -17 15 5 11 -2 15 -27 15 -96 0 70
47 247 70 87 11 182 26 209 34 50 13 70 12 60 -4z m-2815 -96 l25 -15 -25 7
c-14 3 -29 10 -34 15 -16 14 6 10 34 -7z m4355 -14 c-30 -31 -45 -38 -45 -20
0 9 57 50 69 50 3 0 -8 -13 -24 -30z m-2140 1 c-3 -6 -24 -11 -45 -11 -21 0
-42 -5 -46 -11 -7 -12 8 -11 116 6 25 4 31 3 20 -4 -22 -14 -277 -51 -350 -51
-51 0 -61 3 -56 15 4 12 -4 15 -41 15 -82 0 -56 7 152 43 5 1 10 -8 9 -20 0
-19 5 -23 30 -23 27 0 28 1 11 14 -16 12 -11 14 46 20 35 3 84 10 109 14 50 9
55 8 45 -7z m1325 -40 c0 -17 -56 -45 -190 -94 -194 -71 -196 -71 -410 -118
-135 -30 -187 -45 -170 -50 l25 -6 -27 -7 c-15 -5 -35 -5 -46 -2 -21 7 -48
-17 -37 -34 9 -14 -8 -12 -30 4 -28 21 -5 42 61 57 30 7 54 16 54 21 0 5 -10
6 -22 3 -15 -5 -20 -4 -13 3 15 14 63 23 67 12 2 -5 57 8 123 30 74 24 145 40
183 42 58 3 77 11 50 21 -7 2 14 8 47 12 66 8 138 33 130 45 -2 4 14 15 36 25
33 15 42 16 49 6 9 -16 30 -6 30 14 0 7 6 16 13 18 21 9 77 7 77 -2z m-304
-17 c-22 -8 -41 -12 -44 -9 -3 2 1 7 9 9 8 2 21 7 29 9 36 12 41 4 6 -9z
m-239 0 c-3 -3 -12 -4 -19 -1 -8 3 -5 6 6 6 11 1 17 -2 13 -5z m-3101 -39 c17
-13 16 -14 -13 -4 -34 11 -42 19 -20 19 7 0 22 -7 33 -15z m3404 -15 c-8 -5
-19 -10 -25 -10 -5 0 -3 5 5 10 8 5 20 10 25 10 6 0 3 -5 -5 -10z m-770 -60
c-19 -12 -30 -12 -30 -1 0 10 31 20 40 14 2 -2 -2 -8 -10 -13z m-65 -10 c0
-11 -17 -17 -62 -22 -34 -4 -109 -18 -166 -32 -123 -31 -117 -30 -117 -11 0
22 34 36 154 61 125 26 191 27 191 4z m-3015 0 c0 -5 -5 -10 -11 -10 -5 0 -7
5 -4 10 3 6 8 10 11 10 2 0 4 -4 4 -10z m3153 -130 c-5 -18 -14 -20 -92 -20
-97 1 -94 14 6 29 91 13 92 13 86 -9z m272 0 c3 -5 -1 -10 -9 -10 -9 0 -19 0
-23 -1 -4 0 -9 4 -11 10 -5 14 35 14 43 1z m-1630 -38 c-26 -3 -26 -4 -10 -22
17 -18 16 -19 -21 -14 -87 12 -143 26 -152 37 -8 9 2 11 41 9 29 -2 70 1 92 6
26 5 46 5 58 -2 16 -10 15 -11 -8 -14z m952 13 c0 -17 0 -17 -22 -9 -13 5 -14
8 -3 15 19 12 25 11 25 -6z m144 -15 c-15 -13 -37 -20 -65 -19 l-41 1 50 18
c67 25 86 25 56 0z m-1456 -1 c4 -6 5 -13 2 -16 -8 -7 -47 7 -47 18 0 13 37
11 45 -2z m1215 1 c-32 -10 -191 -12 -207 -2 -6 4 44 8 110 9 74 1 112 -2 97
-7z m-325 -20 c-29 -12 -344 -12 -325 0 8 5 89 9 180 9 101 0 157 -4 145 -9z
m739 -10 c-1 -8 -4 -24 -7 -35 -6 -19 -3 -20 59 -17 42 3 64 0 60 -6 -9 -15
-89 -31 -216 -42 -63 -6 -130 -13 -149 -17 -29 -5 -33 -3 -28 10 5 13 2 15
-16 8 -60 -23 -248 -36 -504 -36 -217 0 -275 3 -285 14 -11 11 -5 13 40 9 39
-4 52 -2 52 8 0 11 22 14 98 14 116 0 254 14 378 36 83 16 96 16 138 2 48 -16
63 -13 46 7 -8 10 1 13 39 12 27 0 48 -4 45 -9 -7 -11 3 -10 79 9 61 16 86 31
55 34 -32 2 41 17 77 16 29 -2 40 -6 39 -17z m-1194 -30 c0 -5 -15 -10 -32
-10 -25 0 -29 3 -18 10 20 13 50 13 50 0z m205 -6 c-5 -1 -48 -4 -94 -7 -62
-3 -80 -1 -69 7 9 7 46 10 94 7 43 -2 75 -5 69 -7z m180 7 c15 -6 2 -10 -47
-16 -71 -8 -118 -2 -118 15 0 12 136 12 165 1z m-325 -51 c12 -8 9 -10 -13
-10 -16 0 -26 4 -22 10 8 12 16 12 35 0z m-88 -13 c49 -17 58 -27 25 -27 -15
0 -27 4 -27 9 0 4 -15 13 -32 19 -18 5 -26 10 -18 11 8 0 32 -5 52 -12z"/>
<path d="M4081 1111 c-10 -6 -4 -12 24 -21 27 -9 40 -9 48 -1 6 6 8 13 6 16
-11 10 -65 15 -78 6z"/>
<path d="M6053 463 c-13 -2 -23 -9 -23 -14 0 -11 75 -5 141 11 28 7 23 8 -31
8 -36 -1 -75 -3 -87 -5z"/>
<path d="M7170 10960 c40 -22 50 -24 50 -11 0 5 -14 14 -31 20 -49 17 -58 12
-19 -9z"/>
<path d="M3380 10872 c-30 -25 -22 -59 10 -42 25 14 36 38 23 51 -6 6 -18 3
-33 -9z"/>
<path d="M8330 10880 c0 -5 18 -19 40 -30 49 -25 53 -10 6 19 -37 23 -46 26
-46 11z"/>
<path d="M8481 10797 c19 -12 38 -32 44 -45 13 -29 39 -39 30 -12 -6 20 9 28
20 10 8 -12 35 -13 35 -1 0 9 -132 71 -152 71 -6 0 4 -10 23 -23z"/>
<path d="M6965 10712 c6 -5 21 -13 34 -17 17 -5 22 -4 19 6 -3 8 -18 15 -34
17 -19 2 -25 0 -19 -6z"/>
<path d="M7360 10670 c0 -5 8 -10 18 -10 10 0 23 -5 29 -11 6 -6 17 -9 25 -6
7 3 -2 11 -24 21 -44 19 -48 19 -48 6z"/>
<path d="M3050 10608 c-41 -21 -64 -36 -50 -32 30 8 140 62 140 69 0 8 -12 3
-90 -37z"/>
<path d="M7223 10624 c21 -9 41 -14 44 -10 10 10 -2 17 -43 22 l-39 5 38 -17z"/>
<path d="M7451 10626 c2 -2 25 -13 52 -24 51 -23 66 -12 17 13 -25 13 -81 22
-69 11z"/>
<path d="M8829 10583 c-3 -21 4 -49 15 -56 6 -4 30 -12 52 -18 32 -8 46 -19
60 -45 11 -19 44 -54 74 -79 30 -24 73 -59 96 -79 l40 -35 -24 49 c-18 36 -37
57 -71 76 -56 33 -76 53 -76 78 0 14 -17 25 -68 44 -50 18 -71 31 -78 48 -8
24 -18 31 -20 17z"/>
<path d="M7650 10542 c0 -10 70 -36 77 -28 4 3 4 6 1 6 -3 0 -22 7 -42 15 -20
8 -36 12 -36 7z"/>
<path d="M8060 10534 c0 -7 66 -34 85 -34 8 0 15 5 15 11 0 5 -4 7 -10 4 -5
-3 -23 1 -39 10 -31 15 -51 19 -51 9z"/>
<path d="M8005 10370 c16 -16 35 -30 42 -30 7 0 -1 14 -19 30 -17 17 -36 30
-41 30 -6 0 2 -13 18 -30z"/>
<path d="M9205 10108 c22 -18 55 -48 72 -68 18 -19 47 -50 65 -67 27 -28 29
-33 13 -33 -14 0 -8 -8 22 -30 23 -17 97 -95 164 -173 67 -78 169 -190 226
-248 57 -58 103 -112 103 -119 0 -19 115 -137 129 -132 7 2 -8 26 -34 53 -43
46 -84 117 -85 147 0 21 36 13 48 -10 10 -21 11 -22 11 -3 2 32 21 -4 21 -38
0 -19 10 -39 30 -57 17 -15 30 -35 30 -44 0 -9 5 -15 12 -13 6 1 22 -16 34
-38 13 -22 24 -36 24 -30 0 16 -44 119 -57 133 -7 7 -17 30 -23 51 -11 41 -45
91 -61 91 -6 0 -7 -4 -4 -10 3 -5 3 -10 -2 -9 -11 0 -109 130 -125 163 -6 15
-17 25 -25 22 -7 -3 -27 12 -44 34 -18 23 -37 36 -45 33 -8 -3 -17 2 -20 11
-9 23 2 31 21 16 9 -7 18 -10 22 -6 3 3 4 7 2 9 -2 1 -21 18 -42 37 -27 24
-36 29 -31 15 8 -19 7 -19 -28 2 -21 12 -45 19 -61 16 -19 -4 -27 0 -31 15 -4
10 -25 27 -47 38 -44 19 -59 45 -59 99 0 26 -7 39 -29 54 l-28 20 5 -27 5 -27
-24 20 c-13 10 -49 42 -79 71 -30 28 -68 55 -85 58 -30 7 -30 7 10 -26z m536
-505 l24 -28 -30 25 c-16 14 -32 26 -34 28 -2 1 0 2 6 2 5 0 20 -12 34 -27z"/>
<path d="M8550 10005 c0 -17 19 -31 55 -39 30 -7 30 -7 7 9 -12 9 -20 20 -17
25 2 4 -6 10 -20 12 -16 3 -25 1 -25 -7z"/>
<path d="M8443 9931 c23 -22 44 -37 47 -34 6 6 -66 73 -79 73 -6 0 9 -18 32
-39z"/>
<path d="M8950 9950 c34 -27 63 -26 31 0 -13 11 -31 20 -40 20 -12 0 -10 -5 9
-20z"/>
<path d="M8650 9933 c0 -13 82 -113 127 -153 29 -28 51 -40 63 -37 10 3 32 -4
49 -14 44 -27 38 -35 -6 -9 -38 22 -38 22 12 -29 27 -28 74 -69 105 -90 47
-33 57 -37 68 -24 12 12 8 19 -23 47 -20 18 -54 41 -75 51 -24 11 -40 25 -42
38 -2 13 -33 41 -83 75 -88 59 -145 109 -145 128 0 6 -7 15 -16 18 -20 8 -34
8 -34 -1z m395 -333 c16 -17 16 -20 3 -15 -9 4 -19 13 -22 21 -7 19 -2 18 19
-6z"/>
<path d="M2894 9770 c-39 -15 -41 -33 -3 -25 41 9 49 13 49 26 0 11 -17 11
-46 -1z"/>
<path d="M9480 9768 c1 -7 12 -33 25 -58 l24 -45 1 35 c0 35 -22 80 -41 80 -5
0 -9 -6 -9 -12z"/>
<path d="M10016 9184 c-8 -20 1 -34 20 -34 15 0 17 9 8 34 -8 20 -20 20 -28 0z"/>
<path d="M10140 8686 c0 -16 33 -83 56 -113 30 -40 54 -45 26 -5 -11 15 -26
43 -34 62 -13 32 -48 72 -48 56z"/>
<path d="M10390 8200 c0 -5 25 -37 56 -71 36 -41 59 -78 67 -106 8 -30 16 -43
28 -43 15 0 12 14 -23 90 -23 50 -47 90 -54 90 -7 0 -21 11 -32 25 -20 25 -42
33 -42 15z"/>
<path d="M10593 8122 c0 -25 4 -28 34 -29 19 -1 33 0 31 0 -2 1 -17 14 -34 30
l-31 28 0 -29z"/>
<path d="M10595 8005 c8 -37 25 -57 25 -29 0 11 -7 29 -16 40 -15 18 -15 18
-9 -11z"/>
<path d="M10554 7910 c8 -54 15 -65 30 -50 8 9 8 14 -1 17 -7 3 -13 18 -13 33
0 16 -5 32 -12 36 -8 5 -9 -5 -4 -36z"/>
<path d="M10597 7832 c-12 -24 7 -102 24 -102 6 0 5 9 -1 21 -8 14 -8 29 -2
49 8 22 7 30 -3 34 -8 3 -16 2 -18 -2z"/>
<path d="M331 7537 c-14 -17 -41 -95 -41 -116 1 -9 9 4 19 29 10 25 23 57 29
73 13 30 10 34 -7 14z"/>
<path d="M390 7510 c0 -5 5 -10 10 -10 6 0 10 5 10 10 0 6 -4 10 -10 10 -5 0
-10 -4 -10 -10z"/>
<path d="M10902 7423 c13 -51 29 -65 17 -17 -4 22 -9 42 -9 47 0 4 -4 7 -9 7
-6 0 -5 -15 1 -37z"/>
<path d="M284 7336 c-3 -9 -11 -16 -18 -16 -14 -1 -50 -49 -42 -57 3 -3 8 2
12 11 3 9 15 16 25 16 10 0 19 7 19 15 0 8 7 15 15 15 17 0 20 16 5 25 -6 3
-13 -1 -16 -9z"/>
<path d="M487 4063 c-12 -11 -8 -131 5 -139 17 -11 58 42 58 74 0 46 -41 88
-63 65z"/>
<path d="M862 3833 c-22 -8 -45 -64 -32 -77 8 -8 17 -4 36 17 33 38 31 72 -4
60z"/>
<path d="M841 3701 c-7 -5 -17 -33 -22 -62 -7 -47 -5 -58 18 -101 41 -75 50
-76 122 -12 67 61 73 79 40 125 -35 50 -117 76 -158 50z"/>
<path d="M578 3603 c-24 -6 -23 -16 9 -54 24 -28 28 -42 28 -95 0 -35 5 -68
11 -74 18 -18 55 -8 76 21 19 25 19 26 -3 95 -30 94 -62 123 -121 107z"/>
<path d="M1066 3414 c-8 -20 -8 -108 0 -128 5 -12 10 -13 25 -6 35 19 40 44
19 94 -23 52 -35 63 -44 40z"/>
<path d="M731 3286 c-7 -8 -11 -30 -9 -48 2 -27 8 -34 28 -36 24 -3 70 28 70
48 0 12 -50 50 -65 50 -7 0 -18 -6 -24 -14z"/>
<path d="M1195 3210 c-11 -12 -19 -32 -17 -44 2 -12 -2 -35 -8 -51 -20 -53 22
-58 74 -10 33 31 33 57 -2 96 l-27 31 -20 -22z"/>
<path d="M896 3113 c-12 -12 -6 -43 9 -43 8 0 15 9 15 19 0 21 -13 34 -24 24z"/>
<path d="M10246 2861 c-18 -19 -17 -20 8 -13 14 4 26 11 27 17 1 18 -17 16
-35 -4z"/>
<path d="M10111 2642 l-22 -43 28 3 c18 2 29 10 32 23 3 17 1 18 -13 6 -18
-15 -22 -1 -5 16 6 6 9 17 7 25 -3 7 -14 -6 -27 -30z"/>
<path d="M9805 2180 c-34 -23 -49 -26 -39 -7 4 6 -12 -6 -35 -28 -46 -44 -58
-80 -15 -46 15 11 30 19 34 16 3 -2 26 16 50 40 49 50 50 55 5 25z"/>
<path d="M1265 2096 c-10 -48 -1 -69 26 -61 16 5 31 -5 74 -52 29 -32 56 -55
61 -50 4 4 -11 26 -33 50 -22 23 -44 51 -47 63 -3 11 -22 35 -40 53 l-35 34
-6 -37z"/>
<path d="M2230 2020 c0 -5 5 -10 10 -10 6 0 10 5 10 10 0 6 -4 10 -10 10 -5 0
-10 -4 -10 -10z"/>
<path d="M2865 1879 c-4 -6 -5 -11 -4 -12 2 -1 15 -11 29 -22 14 -11 19 -13
13 -5 -7 8 -13 22 -13 32 0 20 -15 24 -25 7z"/>
<path d="M3120 1855 c-7 -8 -10 -28 -8 -45 3 -20 0 -30 -8 -30 -7 0 -14 -5
-16 -12 -3 -7 -13 -5 -31 7 -15 9 -27 13 -27 8 0 -15 63 -57 84 -55 11 0 34
-8 52 -18 35 -22 54 -25 54 -10 0 6 -6 10 -13 10 -19 0 -53 27 -45 35 4 4 24
-3 46 -15 22 -12 46 -20 53 -18 8 3 -14 17 -48 32 -60 27 -124 77 -77 60 10
-4 25 -12 32 -17 7 -5 15 -7 19 -4 3 3 18 0 32 -8 31 -15 57 -5 48 19 -6 14
-59 46 -112 66 -17 6 -27 5 -35 -5z"/>
<path d="M2775 1850 c-3 -5 -1 -10 4 -10 6 0 11 5 11 10 0 6 -2 10 -4 10 -3 0
-8 -4 -11 -10z"/>
<path d="M1775 1830 c-8 -13 1 -27 25 -40 15 -8 17 -7 13 10 -7 26 -29 44 -38
30z"/>
<path d="M10283 1658 c-25 -28 -43 -118 -19 -99 8 7 25 33 37 58 25 52 15 76
-18 41z"/>
<path d="M2474 1405 c11 -8 29 -15 40 -15 19 1 19 2 -4 15 -35 20 -62 19 -36
0z"/>
<path d="M3040 1360 c0 -4 12 -12 27 -19 19 -9 23 -15 14 -20 -8 -6 -2 -13 20
-24 18 -8 36 -14 40 -11 4 2 21 -15 38 -40 17 -24 37 -46 45 -49 9 -4 13 -13
10 -22 -5 -12 2 -15 35 -15 28 0 47 -6 61 -20 11 -11 26 -17 34 -14 8 3 40 -2
70 -10 46 -14 56 -21 57 -39 0 -20 1 -20 12 -5 10 15 15 14 59 -8 48 -24 68
-57 28 -47 -29 8 -25 -16 6 -27 16 -7 32 -7 44 0 25 13 50 3 61 -26 7 -19 16
-24 43 -24 19 0 38 -5 41 -10 3 -6 17 -7 31 -4 13 3 39 0 56 -7 29 -12 33 -11
46 9 8 12 21 22 28 22 8 0 14 5 14 10 0 6 -7 10 -15 10 -9 0 -18 7 -21 15 -5
11 -15 14 -38 10 -23 -5 -65 6 -156 38 -233 84 -280 102 -280 109 0 13 23 9
44 -7 11 -8 27 -15 35 -15 9 0 -2 11 -24 24 -25 16 -48 23 -62 19 -30 -7 -142
37 -136 53 3 8 -16 23 -44 38 -71 37 -101 64 -85 75 11 6 10 10 -5 16 -26 10
-133 23 -133 15z"/>
<path d="M3390 1059 c0 -5 5 -7 10 -4 6 3 10 8 10 11 0 2 -4 4 -10 4 -5 0 -10
-5 -10 -11z"/>
<path d="M3500 1003 c0 -9 69 -38 75 -31 2 2 1 9 -4 16 -9 14 -71 28 -71 15z"/>
<path d="M4000 1000 c0 -5 5 -10 10 -10 6 0 10 5 10 10 0 6 -4 10 -10 10 -5 0
-10 -4 -10 -10z"/>
<path d="M8452 923 c-6 -3 -10 -9 -7 -13 3 -5 -5 -16 -17 -24 -12 -9 -20 -18
-17 -20 6 -6 89 43 89 52 0 9 -29 12 -48 5z"/>
<path d="M3170 891 c7 -13 16 -17 31 -14 21 6 21 6 -2 19 -33 19 -41 17 -29
-5z"/>
<path d="M3230 856 c8 -8 40 -17 70 -20 l55 -6 -35 16 c-19 9 -51 18 -70 20
-31 4 -33 3 -20 -10z"/>
<path d="M2930 827 c0 -17 117 -90 134 -84 6 2 -17 18 -51 36 -35 17 -62 36
-60 42 1 6 -4 14 -10 16 -7 3 -13 -2 -13 -10z"/>
<path d="M8048 807 c-32 -16 -55 -33 -52 -38 6 -11 77 26 101 53 9 10 14 17
12 17 -2 -1 -30 -15 -61 -32z"/>
<path d="M3396 801 c-4 -5 8 -13 26 -16 18 -4 50 -16 71 -26 20 -11 37 -15 37
-9 0 5 8 10 18 11 15 1 -121 48 -140 49 -4 0 -9 -4 -12 -9z"/>
<path d="M2322 550 c7 -11 31 -25 52 -31 21 -6 64 -21 94 -35 50 -22 92 -31
92 -19 0 3 -10 15 -22 27 -20 20 -21 23 -5 26 29 6 19 17 -23 29 -42 11 -49 6
-27 -17 6 -7 -9 -1 -35 13 -27 16 -48 22 -50 16 -2 -7 -12 -7 -31 0 -46 18
-60 15 -45 -9z"/>
<path d="M2835 473 c-7 -29 -5 -31 110 -100 44 -26 110 -57 147 -69 37 -12
122 -55 188 -94 169 -100 267 -133 334 -110 45 15 76 53 76 96 0 30 -7 37 -89
92 -86 58 -201 105 -279 115 -28 3 -35 0 -42 -18 -10 -27 -29 -35 -80 -35 -28
0 -42 5 -49 19 -15 26 -77 61 -111 61 -16 0 -30 7 -34 15 -4 10 -13 14 -28 10
-14 -4 -46 4 -80 19 l-56 25 -7 -26z"/>
<path d="M3450 442 c0 -13 41 -48 78 -66 30 -16 41 -12 25 10 -5 5 5 -3 21
-19 26 -27 45 -33 220 -68 105 -20 252 -52 326 -69 75 -18 173 -33 220 -35 66
-3 87 -8 97 -21 25 -34 453 -28 453 7 0 13 -77 11 -99 -3 -14 -8 -29 -8 -62 0
-27 7 -47 7 -54 2 -10 -9 -279 28 -445 61 -94 18 -582 150 -647 174 -41 16
-63 20 -66 12 -2 -7 -11 -5 -27 6 -27 19 -40 21 -40 9z"/>
<path d="M3708 443 c6 -2 18 -2 25 0 6 3 1 5 -13 5 -14 0 -19 -2 -12 -5z"/>
<path d="M4216 311 c-3 -5 9 -11 27 -14 30 -4 46 -2 36 7 -11 9 -58 15 -63 7z"/>
<path d="M6704 285 c-19 -14 -19 -14 2 -15 11 0 29 7 40 15 19 14 19 14 -2 15
-11 0 -29 -7 -40 -15z"/>
<path d="M6894 271 c7 -11 -27 -21 -74 -21 -19 0 -41 -4 -49 -9 -9 -6 10 -8
50 -7 45 2 74 9 99 24 l35 22 -33 0 c-18 0 -31 -4 -28 -9z"/>
<path d="M6544 257 c-35 -10 -65 -70 -45 -90 16 -16 45 11 30 29 -14 17 -4 32
34 47 39 16 24 27 -19 14z"/>
<path d="M4346 172 c-3 -6 12 -12 34 -14 25 -2 39 0 37 7 -5 13 -63 19 -71 7z"/>
<path d="M6260 174 c0 -4 8 -13 18 -21 12 -10 14 -16 5 -19 -16 -7 -17 -24 -3
-24 6 0 17 6 24 12 11 11 11 17 -1 35 -14 21 -43 32 -43 17z"/>
<path d="M5100 148 c0 -5 18 -8 40 -8 22 0 40 2 40 4 0 2 -18 6 -40 8 -22 2
-40 0 -40 -4z"/>
<path d="M5370 143 c-27 -5 -50 -21 -50 -34 0 -10 88 19 96 32 5 9 -3 10 -46
2z"/>
<path d="M6173 133 c-24 -8 -43 -18 -43 -23 0 -4 -15 -11 -32 -15 -23 -5 -28
-9 -15 -12 23 -6 177 29 177 40 0 4 -4 5 -10 2 -5 -3 -10 1 -10 9 0 19 -12 19
-67 -1z"/>
<path d="M4916 125 c4 -10 0 -16 -12 -17 -11 0 1 -4 26 -7 30 -5 49 -3 56 6 6
7 14 9 20 3 14 -14 94 -24 94 -12 0 5 -7 13 -16 16 -8 3 -12 10 -9 16 4 6 -24
10 -79 10 -72 0 -84 -2 -80 -15z"/>
<path d="M5191 123 c-39 -4 -43 -6 -38 -28 2 -13 -1 -27 -7 -29 -6 -3 7 -3 29
1 22 3 48 10 57 14 9 5 29 9 43 9 20 0 26 4 23 18 -3 18 -30 22 -107 15z"/>
<path d="M4610 68 c0 -4 16 -8 35 -8 19 0 35 2 35 4 0 2 -16 6 -35 8 -19 2
-35 0 -35 -4z"/>
<path d="M5265 41 c-26 -6 -22 -8 32 -15 65 -8 139 -1 149 15 6 10 -136 10
-181 0z"/>
<path d="M4991 31 c-7 -5 -9 -11 -4 -14 13 -8 53 3 53 14 0 11 -31 11 -49 0z"/>
<path d="M5070 30 c0 -5 11 -10 25 -10 14 0 25 5 25 10 0 6 -11 10 -25 10 -14
0 -25 -4 -25 -10z"/>
</g>
</svg>
